<svg id="Capa_1" data-name="Capa 1" xmlns="http://www.w3.org/2000/svg" viewBox="0 0 243.95 548.02"><defs><style>.cls-1{fill:#e5e2d9;}</style></defs><path class="cls-1" d="M209.82,137.47a12,12,0,0,1-1.71-1,32.74,32.74,0,0,0-6.7-4.67,5.78,5.78,0,0,0-.68-.31,11.18,11.18,0,0,0-2.6-.82,11.55,11.55,0,0,0-4.22.51,6.34,6.34,0,0,0-.94.47c.15-.37.28-.69.45-1.06s.4-.69.57-1.1a21.09,21.09,0,0,0,1.5-3.35,15.39,15.39,0,0,0,0-8.38,38.77,38.77,0,0,0-1.53-4.07,6.31,6.31,0,0,0-3.56-3.39,2.47,2.47,0,0,0-.63-.08c-.17,0-.21,0-.32,0s0-.1,0-.17a3.4,3.4,0,0,0-2-2.69,1.09,1.09,0,0,0-.78,0c-1.25.35-2.4.37-3.54,1.19a44.25,44.25,0,0,0-6.36,5.83,17.28,17.28,0,0,0-1.15,1.61s-.06.16-.09.13a6.66,6.66,0,0,0-3-2.24,1.17,1.17,0,0,0-.55-.06,13.76,13.76,0,0,0-7,3.88.4.4,0,0,0-.1.15.42.42,0,0,1-.16.14c-2,.62-3.76.77-5,2.65-2,3-2.61,6.37-3.09,9.91a2.11,2.11,0,0,0,0,.25c0,.49.06,1.08.11,1.54a24.53,24.53,0,0,0,1.44,6.15c.75,1.88,1.6,3.38,2.35,5.2l.13.28a19.79,19.79,0,0,0,3.49,4.87,105.34,105.34,0,0,0-20,17.09c-2.43-15.16-4.17-30.23-4.22-45.6a2.08,2.08,0,0,0,.65-.17,7.37,7.37,0,0,0,4-5.16c.48-2.09-.42-4.26-2.13-4.92-3.82-1.48-6.06-.28-8.41,2.72-1,1.29-.39,2.62.17,4.19a6,6,0,0,0,2.83,2.89A340.16,340.16,0,0,0,140.81,165s0,.14,0,.2a130.81,130.81,0,0,1-1.7,16.87,278.44,278.44,0,0,0-9.9-35.45c0-.17.27-.21.29-.41.4-3.5.68-5.9-2.66-8.11a4.23,4.23,0,0,0-5.18.86c-1.47,1.47-2.71,3.51-2,5.79a4.91,4.91,0,0,0,2.89,3,8.17,8.17,0,0,0,4.55.12c4.33,13.27,7.41,26.75,10.3,40.41-3.06,9.19-6.46,18.9-9.88,27.72-.92,2.38-1.24,3.17-2.16,5.25a92.09,92.09,0,0,0-1.27-15.27c-.22-1.35-.45-1.29-.61-2.43,2.23-2.18,4-4.63,3.28-7.89-.53-2.4-2.47-3.2-4.79-3.45a6.09,6.09,0,0,0-5.81,2.71,6.21,6.21,0,0,0,.29,6.93c1.34,2.06,3,2,5.08,2.59.08.81.13,1.13.2,2.06s.2,1.2.26,2.6.16,4.07.15,6c0,3.26-.11,10.17-.09,12.8a134.9,134.9,0,0,1-1,17.33,87.23,87.23,0,0,1-1.75,9.55c-1.85,8.28-4.21,15.52-6,23.49-.71,3.14-1.24,5.83-1.86,8.94a9.13,9.13,0,0,0-.18,1c-.82-4.62-1.49-8.7-2.35-13.43-2-10.9-3.42-22.32-4.55-33.43.37-4,.85-7.65.95-11.71.07-3.28,0-6.37-.1-9.87-.07-5.85,0-12.56.07-18.42,0-2.46,0-4.17,0-6.5a83.89,83.89,0,0,0,6.2-11,110.45,110.45,0,0,0,4.72-14,31.87,31.87,0,0,0,1.13-7,10.92,10.92,0,0,0-2.06-6.79c-.11-.15-.39-.14-.49-.15a.29.29,0,0,0-.18,0,49.48,49.48,0,0,0-11.45,8.61c0-.08,0-.19,0-.27-.21-1.46-.38-2.9-.63-4.35-.49-2.72-1.09-5.4-1.68-8.1.38-.68.83-1.53,1.17-2.19,1.67-3.27,3.19-6.49,4.69-9.81.08-.17.18-.42.24-.59a93.62,93.62,0,0,0,3.16-9.78,4.09,4.09,0,0,0,0-1.48,1.74,1.74,0,0,0-.58-1.09,1.51,1.51,0,0,0-.79-.45,8.46,8.46,0,0,0-3.06-.4,16.37,16.37,0,0,0-5.33,1.6,46.42,46.42,0,0,0-4.91,3.26c-.35-1.18-.75-2.54-1.13-3.67-.15-.47-.3-.91-.4-1.25s-.16-.5-.21-.73a15.86,15.86,0,0,1-.3-2c-.17-3.47-.08-6.82,0-10.26.64-.87,1.24-1.74,1.93-2.58a45.8,45.8,0,0,0,10.45-2.58,57.6,57.6,0,0,0,9.68-5.55,84.59,84.59,0,0,0,8.27-6.86c3-2.61,5.57-5.15,8.19-7.78,2.92-2.93,5.26-5.78,7.88-8.87a4.1,4.1,0,0,0,.26-.41,13,13,0,0,0,1.15-2.45.43.43,0,0,0,0-.16,3.7,3.7,0,0,0-1.05-1.58A.69.69,0,0,0,140,74a5.26,5.26,0,0,0-1.59-.64c-2-.09-4.17-.35-6,.45a101,101,0,0,0-19.67,11.25c-4.15,3.06-7.58,6.83-11,10.31a62.94,62.94,0,0,0-5.17,6.54,26.34,26.34,0,0,0-2,3.61,12,12,0,0,0-.47,1.26c0-.29.09-.81.12-1.06s.06-.5.08-.66c.41-3.7.83-7.33,1.29-11,.19-1.48.38-3,.62-4.43a46.82,46.82,0,0,0,7.67-8.85A59.19,59.19,0,0,0,108.76,70a92.36,92.36,0,0,0,2.85-11.09c.89-4.06,1.52-7.83,2.11-11.59.68-4.26.88-7.88,1.21-12a2.57,2.57,0,0,0,0-.48,13.69,13.69,0,0,0-.49-2.69.48.48,0,0,0-.09-.14,3.68,3.68,0,0,0-1.78-.68.75.75,0,0,0-.26,0,5,5,0,0,0-1.64.4c-1.7,1.14-3.58,2.13-4.64,3.92a99.37,99.37,0,0,0-9.35,21.26,128,128,0,0,0-3.28,15.73,67.8,67.8,0,0,0-.73,8.83A20.62,20.62,0,0,0,93,85.78a9.79,9.79,0,0,0,1.41,3.32c-.47,2.86-1,5.77-1.4,8.63-.36,2.32-.7,4.59-1.06,6.9-.23,1.47-.46,2.9-.69,4.37a2.43,2.43,0,0,0-.14-.2c-.3-.5-.57-1-.84-1.54-.12-.24-.25-.5-.35-.75a45,45,0,0,0-2.4-17.91c-1-2.84-3.17-5.41-4.78-7.75-2-2.87-4-5-6.05-7.7-.11-.14-.26-.28-.37-.4a72,72,0,0,0-6.61-6.23A4.42,4.42,0,0,0,68.55,66a2,2,0,0,0-1.13.06,1.44,1.44,0,0,0-.67.43,7.34,7.34,0,0,0-1.63,2.27c-.5,1.55-1.21,3.1-.9,4.82a55.29,55.29,0,0,0,6.18,17.5c2.25,4,5,7,7.88,10.56a28.53,28.53,0,0,0,4.82,4.47,10,10,0,0,0,4.84,1.84c1,1.66,1.85,3.32,2.83,5-.29,3.46-.47,6.91-.45,10.37a6.11,6.11,0,0,0,.07.79c.13,1.07.3,2.09.52,3.11a8,8,0,0,0,.23.78c.43,1.43.82,2.79,1.24,4.23.11.37.24.88.36,1.26-2.43,3.27-4.94,6.08-7.08,9.62-2.47,4.09-4.59,8.28-6.76,12.75a39.64,39.64,0,0,0-2.57,6.84,13.14,13.14,0,0,0,.13,6.67c.07.24-.09.48-.06.71-.71-1.47-1.34-3-2-4.48-.07-.2-.2-.51-.27-.7-1.08-3.29-2-6.54-2.89-9.91a2.84,2.84,0,0,1-.2-1c.52-3.5,1.29-7.05,1-10.56a57.67,57.67,0,0,0-2.36-11.83,87.32,87.32,0,0,0-4.22-10.46c-1.51-3.38-3.28-6.93-4.95-10.18-1.86-3.59-3.84-6.81-6-10.18a2.6,2.6,0,0,0-.26-.32,13.88,13.88,0,0,0-2-1.9.32.32,0,0,0-.15-.06,3.67,3.67,0,0,0-1.81.5.65.65,0,0,0-.22.15,5.05,5.05,0,0,0-1.1,1.31c-.71,1.89-1.63,3.84-1.45,5.87a96,96,0,0,0,4.85,22.36c1.7,4.94,4.31,9.76,6.44,14.13a67.49,67.49,0,0,0,4.21,7,22,22,0,0,0,2.79,3.42c1,1.14,2,1.4,3.23,2.15,1,3.46,2,6.86,3.14,10.32.46,1.35,1.12,2.88,1.69,4.21a43.83,43.83,0,0,0-12.57-11.28c-2.65-1.5-5.92-2.2-8.67-3-3.35-1-6.27-1.43-9.55-2.2a5.42,5.42,0,0,0-.54-.08,69.84,69.84,0,0,0-9-.7,3.83,3.83,0,0,0-1.27.32,1.92,1.92,0,0,0-.83.76,1.42,1.42,0,0,0-.25.74,7.28,7.28,0,0,0,.17,2.79c.58,1.51,1,3.17,2.33,4.31a55.33,55.33,0,0,0,15.75,9.69c4.22,1.68,8.26,2.25,12.66,3.27a41,41,0,0,0,5.63.56,3.93,3.93,0,0,0,.76,0,15.38,15.38,0,0,0,5.41-1.66c.93.41,1.85.75,2.77,1.25a140.85,140.85,0,0,1,7.15,16.3c1.7,4.76,2.7,8.48,4.21,13.07-.09-.14-.23-.18-.31-.27a51,51,0,0,0-16-12c-3.05-1.4-6.79-1.94-9.89-2.6C58,188.25,54.69,188,51,187.34c-.2,0-.42,0-.6-.05a86.15,86.15,0,0,0-10-.27,4.59,4.59,0,0,0-1.37.39,1.79,1.79,0,0,0-.85.8,1.22,1.22,0,0,0-.21.78c.15,1-.05,1.85.49,2.83.85,1.52,1.47,3.13,3.05,4.2a69.11,69.11,0,0,0,18.44,8.92c4.81,1.48,9.44,1.9,14.38,2.79a35.78,35.78,0,0,0,4.25.32,19.06,19.06,0,0,0,2.82,0,16,16,0,0,0,6-1.93l1.66.72c4.32,11,8.56,22,12.09,33.32a284.71,284.71,0,0,0,4.25,34.67c1.44,8.15,2.68,15.35,4,23.34C108.1,304.52,107,311,106,317.46c-.69-1.43-1.09-3.08-1.77-4.46-2.51-5-3.94-8.53-7.76-13.46-1.65-2.13-8.72-6-10.43-8.48-2.07-3-2.77-4.45-3.27-7.8a203.37,203.37,0,0,1-2.27-29.49,53.43,53.43,0,0,0-.42-6.39c1.14-1.48,2.14-3.14,3.25-4.68,3.26-.42,6.22-1.25,7.75-4.35,1-2.09.3-3.67-1.41-5.14a5.52,5.52,0,0,0-6.05-.86A6.41,6.41,0,0,0,80,237.8c-.15,1.35.41,2.17.75,3.37-.58.92-1.19,1.83-1.75,2.78-.42-1-.64-1.76-1.13-2.86a79.63,79.63,0,0,0-8.23-14.16c.13-.24.42-.59.43-.85.19-3.31-.39-5.91-3.5-7.47-2-1-3.7-.13-5.21,1.27A4.57,4.57,0,0,0,60,225.1c.88,2.31,2.92,3.09,5.23,3.52.69.13,1.34-.16,2-.09,2.87,3.93,6,8.6,7.73,13a37.22,37.22,0,0,1,2.43,12.15c.14,2-.41,4.43-.22,6.48a70.09,70.09,0,0,0-12.44-2.94,15.41,15.41,0,0,0,.58-2.22l0-.18c.12-1,.31-1.85.38-2.88a11.48,11.48,0,0,0-.37-3.24c-.06-.26-.16-.61-.2-.75a1.43,1.43,0,0,0-.08-.24,12,12,0,0,0-3.46-4.55c-1-.72-2-.45-3.09-.4a.11.11,0,0,1-.07,0l-.08-.05a7.9,7.9,0,0,0-4.4-.58.7.7,0,0,0-.27.14,4,4,0,0,0-1.17,1.63,6.72,6.72,0,0,0-.85-.53,27,27,0,0,0-4.44-1.66,6.17,6.17,0,0,0-2.06.07c-.17,0-.29.15-.4.19-.6.2-.63,1.18-.6,1.51s.07.16.05.31,0,0-.08.07-.23.11-.32.18a3.35,3.35,0,0,0-1.23,2.33,22.39,22.39,0,0,0,0,2.43,8,8,0,0,0,1.59,4.29,10,10,0,0,0,1.38,1.38c.15.17.34.28.45.4s.27.13.24.27-.18,0-.29,0a7,7,0,0,0-2.28.61,6,6,0,0,0-1.18.92l-.28.29a17.76,17.76,0,0,0-2.41,3.61,4.79,4.79,0,0,1-.63.76,2.81,2.81,0,0,0-.6,2.69,3,3,0,0,0,.74,1.07,3.11,3.11,0,0,0,.48.54A12.48,12.48,0,0,0,47,268c-.09,1.54-.27,2.94-.27,4.53a3.2,3.2,0,0,0,.36,1.15,16.31,16.31,0,0,1,1.09,3.62,2.89,2.89,0,0,0,.66,1.36c.29.31.5.24.8.32a1.29,1.29,0,0,0,.76-.1,17.56,17.56,0,0,0,2.28-.93,5.73,5.73,0,0,0,.79-.48c.28-.18.65-.43.91-.58a6.34,6.34,0,0,1,.72-.33,2.87,2.87,0,0,0,.66-.3,8.36,8.36,0,0,0,2.16-2.63,1.65,1.65,0,0,1,.29-.4.57.57,0,0,1,.19-.12,19.7,19.7,0,0,0,1.69-1.28l.11-.11s0-.05.09-.05a.27.27,0,0,1,.14.05A12.75,12.75,0,0,0,64,273.1a1.32,1.32,0,0,0,.32,0,10,10,0,0,0,3.58-.44,2.21,2.21,0,0,0,1.17-1.07,5.5,5.5,0,0,0-.06-4.29c0-.05-.18.2-.2.11s.17-.07.15-.18,0,0-.1-.19-.24-.37-.37-.57a11.63,11.63,0,0,1-1.15-2.35,21,21,0,0,0-2-4.54,55.57,55.57,0,0,1,12,3.62c.82,6.73,1.64,14.11,2.51,20.64.41,3,1.38,4.47,2.24,7.15-2.72-.61-5.47-1-8.23-1.41,0,0,0-.08,0-.1-1.44-2.63-3.08-4.47-6.27-4.21-2,.16-3.05,1.63-3.55,3.51a4.22,4.22,0,0,0,1.46,4.85c1.67,1.28,3.82,1.05,5.71.28a8,8,0,0,0,1.94-1.52c4,.64,7.8,1.22,11.89,2,1.86,1.89,7.84,5.14,9,6.65a52.26,52.26,0,0,1,7.49,13c1.43,3.26,2.24,7.09,3.45,10.54-.68,5.64-1.76,11.79-2.2,17.29-1.68,20.93-3,40-3.22,61.4a283.33,283.33,0,0,0,1.19,32,305.49,305.49,0,0,0,5.66,32c0,.18.2.46.45.44a7.71,7.71,0,0,0,.8-.3c.23-.05.12-.47.1-.56-3.15-20.56-5.74-43-5.43-63.26.33-21.55,1.93-40.43,3.92-61.5,1.05-11.05,3.23-22.7,4.8-33.86.11.08.08.24.1.36,1.77,10.7,3.62,21.38,5.47,32.06.64,3.65,1.22,7.34,1.75,11,.32,2.15.67,4.28.92,6.41.5,4.22.9,8.57,1.26,12.74.14,1.6.34,3.3.39,4.73.42,12.21.54,24,.42,36.23,0,2.58-.12,5.91-.23,8.58s-.31,6-.45,8.42c-.28,4.79-.59,9.09-.93,13.62-.12,1.56-.2,3.13-.34,4.47-2.53,23.64-5.83,46.95-10.18,70.26a.38.38,0,0,0,.08.32.42.42,0,0,0,.31.15l.48,0c.15,0,0,0,.09,0a.51.51,0,0,0,.39-.34c4.72-23.22,9-46.21,11.34-69.89a619.21,619.21,0,0,0,2.5-71.71c0-1.62-.27-3.08-.39-4.64-.34-4.47-.74-8.9-1.24-13.34-.23-2.05-.54-4.08-.83-6.11-.54-3.8-1.11-7.69-1.74-11.46-1.3-7.65-2.59-15.46-3.82-23-.63-3.85-1.23-7.46-1.87-11.17-.49-2.87-1-5.4-1.42-8.24.36-1.62.79-3.78,1.1-5.32,1-4.69,1.79-9,2.86-13.6,1.67-7.13,3.74-14.22,5.39-21.38.8-3.5,1.51-7.16,2-10.68a137.88,137.88,0,0,0,1.11-17.33l.6-1.45c.84-2,1.63-3.94,2.43-5.94,4.56-4.87,9-9.83,14-14.23,1.47,1.05,2.86,2.2,4.74,2.18a6.28,6.28,0,0,0,4.74-2.09c2-2.19,2.14-5.44,1.41-8s-2.55-5-5.08-4.84c-5.69.33-6.19,4.65-7.13,9.27-.11.49.17.83.17,1.29a136,136,0,0,0-10.74,10.47c1.54-4.05,2.91-7.74,4.49-11.88.92-2.42,2-5.18,3-7.81.81-2.25,1.75-4.87,2.44-7.27.18-.63.51-2,.61-2.49,1-5.34,2-10.38,3-15.63a108.14,108.14,0,0,1,19.25-19,29.11,29.11,0,0,0-.65,9.22,19.19,19.19,0,0,1-.24,4.39c-.06.39-.17.85-.24,1.33,0,.08-.1.07-.08.36a10.07,10.07,0,0,0,2.69,7,4.38,4.38,0,0,0,2.64,1.13,19,19,0,0,0,6.32-1.39,4,4,0,0,0,.58-.34,20.8,20.8,0,0,0,4.59-3.79c.67-.7.35-.48.65-.72l.27-.24c.13-.11,0-.06.13-.09s.17,0,.26.06l.29.11a36.47,36.47,0,0,0,3.65,1.11c.1,0,.19,0,.28,0a3.38,3.38,0,0,1,1,.58A17,17,0,0,0,191,174a5.6,5.6,0,0,0,1.33.11,14.1,14.1,0,0,1,1.48.14c.55.1,1.38.32,2,.45a11.36,11.36,0,0,0,1.66.34,26.45,26.45,0,0,0,4.54.16,3,3,0,0,0,2.36-1.09,3.51,3.51,0,0,0,.4-2.75,37,37,0,0,1-.48-7.14,5.76,5.76,0,0,0-.13-2.16c-1.11-2.85-2.4-5.23-3.66-7.91a22.74,22.74,0,0,0,11-8.85,4.76,4.76,0,0,0,.43-1.08,7,7,0,0,0,.64-2.51A5,5,0,0,0,209.82,137.47Zm-112-30.85a26.42,26.42,0,0,1,1.64-3.35,55.51,55.51,0,0,1,4.26-6.06A100.51,100.51,0,0,1,113.9,87a16.19,16.19,0,0,1,1.35-1c2.31-1.58,5-3.43,7.33-4.7a60,60,0,0,1,9.79-4.1c1.51-.5,2.4-.24,3.68-.41.6-.08.79.14,1.17.2s.26,0,.43.19-.25.4-.32.51a3.06,3.06,0,0,1-.22.29q-3.69,4-7.67,7.68c-1.17,1.08-2.38,2.18-3.57,3.21-4,3.42-8.05,7.2-12.11,10.33a65.06,65.06,0,0,1-8.8,5.66,44.63,44.63,0,0,1-7.41,2.73A6.28,6.28,0,0,1,97.82,106.62Zm-1.1-33.48c.58-5,1.59-10.51,2.71-15.6.08-.4.37-1.26.5-1.67.89-2.79,2-6.21,3-8.74a55.89,55.89,0,0,1,5.11-9.44c1.26-1.88,2.31-2.11,3.77-3.47.06-.06.06,0,.1.09a2,2,0,0,1,0,.59c0,.13,0,.28,0,.37-.47,3.69-1.06,7.41-1.77,11-.34,1.69-.65,3.36-1,5-1.23,5.63-2.42,11.6-3.93,17a79.19,79.19,0,0,1-4,10.75,50.82,50.82,0,0,1-4.29,7,6.93,6.93,0,0,1-.21-.87,33.56,33.56,0,0,1-.35-3.94A77.05,77.05,0,0,1,96.72,73.14ZM93.84,108.8s0,.17,0,.19,0,.12-.06.06A.35.35,0,0,1,93.84,108.8ZM87.51,104a12.65,12.65,0,0,1-3-1.33A30.51,30.51,0,0,1,80.12,99,100.41,100.41,0,0,1,73,90.24,57,57,0,0,1,68,74c-.17-1.36.48-2.4.8-3.64.09-.35.37-.48.5-.79a75.77,75.77,0,0,1,5.1,5.78l.2.26c.75,1,1.58,2.08,2.32,3.11a118.24,118.24,0,0,1,7.24,10.8,32.18,32.18,0,0,1,2.83,7.59C87.55,99.36,87.39,101.62,87.51,104ZM69.08,150.4c-.27-.24-.4-.22-.66-.51a29.74,29.74,0,0,1-2.48-2.68,66.24,66.24,0,0,1-4.23-6.1A147.39,147.39,0,0,1,55,127.89c-.16-.35-.42-1.15-.55-1.54-.89-2.74-2-6-2.59-8.66A54.53,54.53,0,0,1,50.59,107c-.05-2.33.67-3.27,1.07-5.3,0-.12,0-.1.16-.08s.24.3.3.4.15.2.19.28c1.76,3.12,3.39,6.27,4.93,9.5.69,1.47,1.42,3,2.08,4.47,2.21,5,4.69,10.13,6.54,15.12a66.37,66.37,0,0,1,2.85,10.66A45.94,45.94,0,0,1,69.08,150.4Zm-1.39,21a33.23,33.23,0,0,1-5.7-.11A101.84,101.84,0,0,1,50.92,169a56.51,56.51,0,0,1-14.08-9.45c-1-.94-1.15-2.17-1.68-3.32-.15-.33,0-.6-.11-.93,2.56.3,5.07.75,7.59,1.3l.32.08c1.24.34,2.53.62,3.75,1a124.61,124.61,0,0,1,12.45,3.84,31.89,31.89,0,0,1,7,4.06c1.9,1.39,3.2,3.29,4.75,5.05A12.18,12.18,0,0,1,67.69,171.4Zm6.72-.4a2.17,2.17,0,0,1-.11-.26,1.72,1.72,0,0,1,.13.27C74.46,171.07,74.43,171,74.41,171Zm5.88,33.37a38.81,38.81,0,0,1-6.41.1c-4-.35-8.52-1.12-12.61-1.87a69.64,69.64,0,0,1-16.65-8.81c-1.21-.9-1.5-2.11-2.24-3.27-.21-.31-.08-.58-.22-.89,2.89.17,5.74.49,8.61.93l.37.06c1.45.29,2.88.5,4.33.8,4.73,1,9.6,1.84,14.2,3.26a39.12,39.12,0,0,1,8.25,3.8c2.26,1.33,3.92,3.2,5.87,4.93A15.45,15.45,0,0,1,80.29,204.37Zm22.1-31.66a40.55,40.55,0,0,1,5-7.62C109,163,111,161.67,113,160a15,15,0,0,1,.56,3.58,38,38,0,0,1-.67,6.35,93.46,93.46,0,0,1-3.87,12.4c-1.71,4.56-7.16,10.86-9.5,13.46-1.46,1.62-1.68,1.64-1.77,1.7a13.12,13.12,0,0,1-3.9,1.77c-.4.13-.59,0-1,.08.66-2.88,1.46-5.68,2.38-8.48,0-.1.09-.26.12-.36.48-1.33,1-2.65,1.44-4,0,0,0-.11.05-.15C98.67,181.82,100.28,177.08,102.39,172.71Zm-22.14-10a40.94,40.94,0,0,1,2-6.24c1.61-3.77,3.7-7.85,5.66-11.56,4.18-5.05,8.45-9.65,13.86-13.4,1.17-.81,2.53-.76,3.87-1.15.12,0,.22,0,.41,0a5.24,5.24,0,0,1,.84.11,88.15,88.15,0,0,1-3.4,8.18l-.16.35c-.7,1.32-1.33,2.62-2,3.94a110,110,0,0,1-7.62,12.92,37.34,37.34,0,0,1-6.6,6.75c-2.12,1.75-4.58,2.7-7,3.95A15.33,15.33,0,0,1,80.25,162.67Zm9.89,39.54c0,.09.08.2.09.29a.2.2,0,0,1,0,.17c-1.24-3.75-2.57-7.88-3.89-11.5-1.79-4.89-3.59-9.21-5.65-14a5,5,0,0,0-.26-.48c-.23-.42-1-1.9-1.48-2.49a.92.92,0,0,1-.16-.27c-.09-1.29-.16-2.56-.23-3.84a54.76,54.76,0,0,0,17.73-11.34,21.08,21.08,0,0,0,1.87-2.45c.28,1.38.51,2.76.75,4.17.43,2.66.83,5.29,1.19,8a1.15,1.15,0,0,1,0,.7c-.12.29-.43.73-.6,1.09a98.84,98.84,0,0,0-4,9.42c-1.31,3.66-2.29,6.86-3.44,10.45-.06.19-.11.41-.15.59a84.54,84.54,0,0,0-1.94,10A5.78,5.78,0,0,0,90.14,202.21Zm12,30.09C99,223.72,95.27,215.41,91.76,207c.12-1.11.26-2.23.35-3.34a10.5,10.5,0,0,0,2.43-.13,17.08,17.08,0,0,0,4.86-2.32,22.11,22.11,0,0,0,2.74-2.5c0,1,.07,1.51.09,2.54C102.35,211.52,102.68,222,102.18,232.3Zm-48.56,14a1.48,1.48,0,0,0,.1-.3,13.91,13.91,0,0,0,.51-1.92.75.75,0,0,1,.28-.41.26.26,0,0,1,.17-.11,2,2,0,0,1,1.07,0c.36.1.65.15,1,.25.67.19,1.35.43,2,.68.14.05.39.06.51.16,1.26,1,2.38,1.08,3.12,2.69a12.46,12.46,0,0,1,.58,5.7,3.88,3.88,0,0,1-.09.94,9.59,9.59,0,0,1-2.7,4.59,1,1,0,0,1-.44.16,24.46,24.46,0,0,1-3.45.67,9.34,9.34,0,0,1-.79-1.08s0-.08,0-.16a1.23,1.23,0,0,1,0-.38c0-.09.11-.13.11-.22a5.16,5.16,0,0,0-.2-1.9,9.11,9.11,0,0,1-.35-2.41,5.8,5.8,0,0,0-.42-2.12c-.17-.42-.51-.75-.76-1.22a3.48,3.48,0,0,1-.75-1.5A6,6,0,0,1,53.62,246.3ZM45,251.53a5.06,5.06,0,0,1-.91-2.66,2.58,2.58,0,0,1,.06-.48c0-.22.07-.71.07-.95s0-.57,0-.75a2.6,2.6,0,0,1,0-.28c0-.15-.07-.24,0-.44a2.35,2.35,0,0,1,.54-.61,2.78,2.78,0,0,0,1.05-2s-.09-.06.06-.09a6.12,6.12,0,0,1,.83-.06,6.56,6.56,0,0,1,1.45.42,8.13,8.13,0,0,0,1,.38,6.29,6.29,0,0,1,1.79.75c.35.2.2.21.35.29s.27.21.27.28c-.11.86-.49,1.92-.56,2.69a3.5,3.5,0,0,0,.41,1.78c.22.61.52,1,.74,1.58s.44,1.16.62,1.74a16.35,16.35,0,0,0-2-1.6,2.34,2.34,0,0,1-.8-.75,1,1,0,0,0-.94-.7c-.43-.07-.56.18-.82.36s-.23.38-.25.63a.59.59,0,0,0,.28.53.8.8,0,0,0,.62.1,1.57,1.57,0,0,1,.55.15,1,1,0,0,1,.21.14,17,17,0,0,1,3.25,3c.76.74.33,1.09.61,1.59a.39.39,0,0,1-.27.65c-.68-.09-1.07-.74-1.47-1.06a9.06,9.06,0,0,1-.93-.85,1.52,1.52,0,0,1-.38-.66c-.15-.33-.26-.64-.68-.77-.05,0-.05-.07-.22,0a1.65,1.65,0,0,0-.76.52,1.19,1.19,0,0,0-.15.9.7.7,0,0,0,.51.45,6.47,6.47,0,0,1,2,1.33c-.08.07-.28-.14-.36-.11-.6.2-1.9-1.09-2-1.26-.6-.75-1.08-1.42-1.53-1.88A27.06,27.06,0,0,1,45,251.53Zm1.28,15a16,16,0,0,1-4.09-.71,1.57,1.57,0,0,1-.53-.47c-.17-.21-.5-.56-.74-.8a7.06,7.06,0,0,1-.76-.88,1.52,1.52,0,0,1-.21-.86c0-.27.29-.33.41-.47a2.22,2.22,0,0,1,.35-.31,1.11,1.11,0,0,0,.13-.14,6.23,6.23,0,0,0,.62-1.24c.1-.25.21-.47.23-.56a4,4,0,0,1,.95-1.39,2,2,0,0,1,.33-.31c.36-.31.66-.64.94-.88a2.84,2.84,0,0,1,.64-.45,2.71,2.71,0,0,1,1.21-.3A3.24,3.24,0,0,1,47,257a.53.53,0,0,1,.14.1A20,20,0,0,0,49,258.27c.19.11.35.15.54.24a21.13,21.13,0,0,0-3.15.44s-.09,0-.14-.06,0,0-.16-.06-.38-.13-.56,0a1.1,1.1,0,0,0-.5.48,1,1,0,0,0,.15.93.8.8,0,0,0,.61.28c.26,0,.4-.15.62-.26s.28-.23.56-.28a14.7,14.7,0,0,1,4.68,0c.2,0,.52.26.43.28a10.17,10.17,0,0,1-3,0,2.88,2.88,0,0,0-.74-.06,1,1,0,0,0-.76.62.91.91,0,0,0,.28.86c.22.2.39.15.61.15s.32-.19.44-.29a.77.77,0,0,1,.4-.14,1.57,1.57,0,0,1,.25,0,6.83,6.83,0,0,1,2.11.21c.07,0,.14.15.15.27s.16.4,0,.48-.41-.07-.62-.12a7.21,7.21,0,0,0-1.81-.24,3.9,3.9,0,0,0-1.34.42,9.09,9.09,0,0,1-1.24.39c-.33.07-.35,0-.56.16s-.23.25-.18.56a.83.83,0,0,0,.61.78,1,1,0,0,0,1-.27,2.76,2.76,0,0,1,1.39-.88,5.41,5.41,0,0,1,2,.21s.12,0,.1,0c-.57.37-1.34.75-1.9,1.05A12.34,12.34,0,0,0,46.3,266.49Zm12.13,4.25c0,.12-.15.18-.21.25-.35.39-.72.75-1.1,1.11-.12.12-.29.26-.38.37a.86.86,0,0,0-.17.24,3,3,0,0,0-.28.57,3.4,3.4,0,0,1-.45.8c-.12.13-.06.06-.14.12l-.18.16c-.06.06,0,.07-.12.15a3.3,3.3,0,0,1-.39.26l-.31.17-.67.36c-.22.11-.51.26-.73.39-.52.29-1,.6-1.53.91a1.62,1.62,0,0,1-.33.13l-.35.11a3.43,3.43,0,0,0-.44.19l-.25.14c-.09.06-.24.06-.32.12s-.16-.1-.17-.11a18,18,0,0,1-.67-2.25c-.13-.57-.22-.89-.33-1.28s-.18-.29-.27-.66-.14-.11-.21-.75a11.13,11.13,0,0,1,.1-3.07c0-.08,0-.38,0-.52a3.38,3.38,0,0,1,.14-.63c.05-.13,0-.16.08-.25s-.09.16,0-.1,0-.1.25-.57,1.08-1.61,2-1.7c.2,0,.85-.32,1-.35a1.91,1.91,0,0,1,.26-.05,3.41,3.41,0,0,0,.59-.13l.24-.11.23-.1a2.9,2.9,0,0,1,.36-.14c.07,0,.21-.1.18,0s-.17.08-.26.16a5.18,5.18,0,0,1-2,.94,2.28,2.28,0,0,0-1,.31c-.27.17-.07.09-.21.25a.73.73,0,0,0-.11.56.54.54,0,0,0,.32.42,1.29,1.29,0,0,0,1.22-.1,14.73,14.73,0,0,1,1.34-.75c.07,0,.22-.23.22-.07s-.23.31-.15.51,0,.4.28.48a1,1,0,0,0,.86,0,2.13,2.13,0,0,0,1-.91,3.2,3.2,0,0,1,.38-.63c.13-.15.08-.48.36-.42s.41.82.43,1a7.87,7.87,0,0,0,1.47,3.56A1.27,1.27,0,0,1,58.43,270.74Zm9.1-1.13c.11.22-.08.22-.06.38s0,0,0,.14a1.18,1.18,0,0,1-.36.49.57.57,0,0,1-.21.1l-.29.1c-.17.06-.43.16-.67.22a8.81,8.81,0,0,1-3.07.19,5.52,5.52,0,0,1-1.39-.55c-.35-.15-.26-.13-.56-.27a7.88,7.88,0,0,1-1-.55s-.06,0-.18-.15a3.77,3.77,0,0,1-.64-.77c-.12-.28-.3-.71-.41-1-.3-.83-.43-1.54-.7-2.4a5.06,5.06,0,0,0-.67-1.49c-.38-.59-1.06-1.58-1.55-2.22.36-.38,0-.63.7-.79s1.52-.09,2.32-.27c.42-.1,1-.25,1.55-.41a13.73,13.73,0,0,1,1.89-.39,1,1,0,0,1,.2,0c.4-.1.91.53,1,.71a6.41,6.41,0,0,1,1.07,3.1c-.07,1.14,1.32,2.8,1.55,3.14A16.64,16.64,0,0,1,67.53,269.61ZM187.08,124.39a2.37,2.37,0,0,0-1.35-.21s-.07,0-.11,0a2,2,0,0,0-1,1.67,5.3,5.3,0,0,1-.81,1.93c-1,1.45-1.86,3.26-2.69,4.82-.09-1-.11-2.8-.13-3.66,0-1.25.22-2.3.2-3.26a8.14,8.14,0,0,0-.45-3.64,32.14,32.14,0,0,0-2.77-4.32,3.11,3.11,0,0,1,.25-.67c.08-.17,0-.21.14-.35a15.39,15.39,0,0,1,2.85-3.11c.28-.25.86-.82,1.3-1.2a12.78,12.78,0,0,1,2.43-1.87,7.72,7.72,0,0,1,1.83-.53s.05,0,0,0a.59.59,0,0,0,0,.32,4.81,4.81,0,0,0,2.95,2.65,3.27,3.27,0,0,1,1.43.78c.33.4.26.71.44,1.18s.25.91.45,1.45.54,1.24.8,1.83c.09.2.28.37.32.62.3,2,.7,3.38.09,5.49a50.42,50.42,0,0,1-2.27,5.24c-.44,1-.76,2.44-1.24,4.07-.15.52-1.4,3.51-2.63,3.75-.27.06-.61.64-.89.7a12.54,12.54,0,0,1,2.72-4.21c.25-.25.56-.49.45-1a2,2,0,0,0-.89-1.36,1.69,1.69,0,0,0-1.68-.14c-.56.31-.55,1-.5,1.51a2.48,2.48,0,0,1-.11,1.25c-.33.86-.61,1.37-1,2.29s-1.06,2.13-1.46,3.16c-.65-.69-.92.37-1.36-.9s-.95-1.6-.27-3.52a31.59,31.59,0,0,1,3.46-7.37s.12-.21.16-.25a4.32,4.32,0,0,1,1-.83h0c.33-.13.69-.19.88-.52a1.08,1.08,0,0,0,.12-1A1.4,1.4,0,0,0,187.08,124.39Zm-26.26,3.94c.23-3.31,2.11-4.29,3.67-6.76.19-.31.58-.43.86-.69.91-.83,2-1.72,2.91-2.46.49-.38,1-.71,1.45-1a5,5,0,0,1,2-.92.32.32,0,0,1,.25,0,1.72,1.72,0,0,1,1,.64c.75,1.09,1.5,2.26,2.36,3.29a12.63,12.63,0,0,1,2.35,3.59c.38,1.21-.13,2.21-.26,3.19s-.46,1.8-.51,2.59a9.55,9.55,0,0,0,.56,3.71,19.63,19.63,0,0,1,1.05,4.84,8.78,8.78,0,0,0,.85,3.21c.07.16.25.17.35.32a4.86,4.86,0,0,1,.28.7c.05.14.12.25.11.31a18.48,18.48,0,0,1-.69,2.58,60.59,60.59,0,0,1-6.64,1.27,2.15,2.15,0,0,1-.91.06,14.81,14.81,0,0,1-7.7-6.32,9.4,9.4,0,0,1-.72-1.7C162.1,135.57,160.59,131.64,160.82,128.33Zm20,35.41a8.89,8.89,0,0,1-.8,2,.8.8,0,0,1-.13.13,16.15,16.15,0,0,1-1.31,1.46c-.33.32-.32.35-.58.58a11.7,11.7,0,0,1-2.38,2,17.81,17.81,0,0,1-5.72,1.6c-.49.06-.94,0-1.43,0-.11,0-.25,0-.35,0a.59.59,0,0,1-.27,0,3.7,3.7,0,0,1-1.34-.89s0,0-.08-.19-.38-.17-.34-.62a23,23,0,0,1,.84-5.41c0-.17,1.78-4.34.53-5.82-.83-1-.76-4.3-.26-5.87.18-.56.75-2,1.54-2.27.07,0,.28-.16.38-.19,1.29-.3,2.65-.56,4-.74.93-.12,2-.26,2.89-.44a35,35,0,0,0,4.54-1.3,5.88,5.88,0,0,1,1.48,1.29c-.41,1.69-1,3.61-1.32,5.25a8.6,8.6,0,0,0-.09,2.71c.11,1.59.33,2.93.33,4.55A10.75,10.75,0,0,1,180.77,163.74Zm20.58-1.13c.3,1.16,0,.77.12,1.46s-.11.55,0,1.3.12,1.35.27,2.42a28.85,28.85,0,0,1,.35,4.32c0,.14-.07.44-.28.49a2.22,2.22,0,0,1-.77,0l-.58-.09a8.11,8.11,0,0,0-.88-.06l-.71,0a3.75,3.75,0,0,1-.81,0c-1-.22-2-.45-3.11-.63l-1.54-.24-1.59-.24-.46-.08a5.06,5.06,0,0,1-.85-.22c-.16-.08-.17-.12-.29-.18a2.44,2.44,0,0,0-.34-.14c-.11,0,.08.07-.08,0l-.31-.19a11.06,11.06,0,0,1-1.36-1.11,7.59,7.59,0,0,0-.84-.8,1.71,1.71,0,0,0-.42-.26c-.25-.14-.64-.28-1-.41-.87-.38-1.73-.76-2.58-1.23-.15-.08-.48-.07-.53-.28a3,3,0,0,1,0-2.27,13.92,13.92,0,0,0,.18-6.9c-.07-.32-.27-1.9.08-2.35a6.43,6.43,0,0,1,1.11.79c.36.25.81.66,1.13.9a4.36,4.36,0,0,0,2.44.9,1.24,1.24,0,0,0,1.12-.46c.26-.32.3-.55,0-.87a4,4,0,0,0-2.56-1.26,4.58,4.58,0,0,1-1.49-.6,19,19,0,0,0,3.83.81c1.14.11,2,.33,3,.49a2.39,2.39,0,0,0,2.07-.52c.23-.15.23-.54.24-.81a1.3,1.3,0,0,0-.42-.76c-.15-.11-.12-.2-.24-.22a4.66,4.66,0,0,0-2.07,0,11.36,11.36,0,0,1-4.19-.32,6.26,6.26,0,0,0-.84-.13c-.21,0-.19,0-.29-.06s-.06-.07.06-.16a.8.8,0,0,1,.56-.15c.22,0,.72,0,.94,0l.49,0a1.44,1.44,0,0,0,.32,0,9.08,9.08,0,0,0,1.4-.18h.21c.51-.13,1.77,0,2.13-.09,1.67-.48,3.86,1.1,4.65,1.7s.46.49.77.75.07.1.19.21a1.12,1.12,0,0,1,.2.25,10.22,10.22,0,0,1,.9,1.35c.08.13.25.65.34.76A20,20,0,0,1,201.35,162.61Zm8.5-20.77a11.29,11.29,0,0,1-.77,2.3c-.26.67-.6,1.43-.75,2a3,3,0,0,1-.64,1.24,28.63,28.63,0,0,1-6.78,4,21.69,21.69,0,0,0-6.38-1.68c-1.25-.15-2.93-.34-4.24-.58a2.07,2.07,0,0,1,.4-.38,9.68,9.68,0,0,1,3.57-1.82,5.73,5.73,0,0,1,3.13.75,1.45,1.45,0,0,0,1.53-.29,1.82,1.82,0,0,0,.4-1.58,1,1,0,0,0-.56-.75c-.29-.2-.41-.06-.7,0a11.27,11.27,0,0,1-2.59.19,7.38,7.38,0,0,0-2.4.11A14.25,14.25,0,0,0,190,147c-.45.27-.62.71-1.23.71-.23,0-.42-.69-.39-.94s-.05-.66.18-.84a12.59,12.59,0,0,1,3.49-1.81,2.24,2.24,0,0,1,.44-.1,1.49,1.49,0,0,1,.84,0c.27.12.49.36.84.23s.6-.14.81-.57a1.42,1.42,0,0,0-1.6-2,5.53,5.53,0,0,0-1.17.56,38.26,38.26,0,0,1-5.11,2.21c-.24.08-.27.18-.27-.16a1.08,1.08,0,0,1,.51-.93,24.36,24.36,0,0,1,8.22-3.32h.09a4.9,4.9,0,0,1,1,.19,1.73,1.73,0,0,0,1.05.08,1.18,1.18,0,0,0,.69-.71,1.62,1.62,0,0,0-.35-1.64,1.29,1.29,0,0,0-1.06-.47c-.44,0-.6.23-1,.43,0,0,0,.08-.12.15a.79.79,0,0,1-.4.25,27.23,27.23,0,0,0-6.3,1.71c.63-.65,1.12-1,1.76-1.74a25.69,25.69,0,0,0,2-2.9l.18-.31a7.47,7.47,0,0,1,4.48-1.7,2.44,2.44,0,0,1,1,.27c.8.3,1.49.62,2.33.94a4.33,4.33,0,0,1,.47.17,13.73,13.73,0,0,1,3.19,2c.18.16.44.48.69.74a18,18,0,0,0,2.07,1.89.79.79,0,0,0,.28.13c.18.06.51.16.81.29s.79.18,1.07.53A2.44,2.44,0,0,1,209.85,141.84Z"/></svg>