<svg id="Capa_1" data-name="Capa 1" xmlns="http://www.w3.org/2000/svg" viewBox="0 0 535.74 122.47"><defs><style>.cls-1{fill:#605c55;}</style></defs><path class="cls-1" d="M74.34,62.69A17.88,17.88,0,0,1,79.84,76a20.87,20.87,0,0,1-3.06,11.14A21.63,21.63,0,0,1,68.44,95,24.66,24.66,0,0,1,56.58,97.8q-3.63,0-7.94-.35c-1.06-.08-2.31-.15-3.75-.23S41.83,97.1,40,97.1l-7.83.12q-2.16.12-5.79.12c-.15,0-.22-.24-.22-.7s.07-.7.22-.7a21.53,21.53,0,0,0,6.07-.63A4.21,4.21,0,0,0,35.19,93a13.11,13.11,0,0,0,.74-5.1V34.2a14,14,0,0,0-.69-5.11,4,4,0,0,0-2.61-2.26,20.84,20.84,0,0,0-6-.64c-.23,0-.34-.23-.34-.69s.11-.7.34-.7l5.56.12q4.77.22,7.83.23c1.36,0,2.63,0,3.8-.12s2.18-.15,3-.23c2.34-.23,4.58-.35,6.7-.35q9.75,0,14.64,4.18A14,14,0,0,1,73,39.77a15.36,15.36,0,0,1-3.52,9.92,22.86,22.86,0,0,1-9.76,6.79Q68.84,57.31,74.34,62.69ZM47,26.83a3.62,3.62,0,0,0-2.1,2.26,15.75,15.75,0,0,0-.68,5.34v22l5.11.12q7.83,0,11.63-4.41t3.8-11.61q0-6.49-3.29-10.38T51.25,26.31A13,13,0,0,0,47,26.83ZM67,91.24q4-4.35,4-12.36,0-8.82-4.93-14.21T52.38,59.15a80.21,80.21,0,0,0-8.17.24V87.94a9.83,9.83,0,0,0,.85,4.52,5.11,5.11,0,0,0,3.12,2.38,22.26,22.26,0,0,0,6.7.76Q63,95.6,67,91.24Z"/><path class="cls-1" d="M106.2,87.47a13.2,13.2,0,0,0,.63,4.76,3.46,3.46,0,0,0,2.38,2,21.6,21.6,0,0,0,5.62.52h10.89a15.41,15.41,0,0,0,11.18-4.23A21,21,0,0,0,142.63,79c0-.23.21-.33.63-.29s.62.17.62.41a165.11,165.11,0,0,0-1,16.48,2,2,0,0,1-.34,1.33,1.75,1.75,0,0,1-1.36.41H88.5c-.15,0-.23-.24-.23-.7s.08-.7.23-.7a23.17,23.17,0,0,0,6.13-.58,3.83,3.83,0,0,0,2.61-2.26,14.7,14.7,0,0,0,.68-5.16V34.2a14.27,14.27,0,0,0-.68-5.11,4.05,4.05,0,0,0-2.61-2.26,21.46,21.46,0,0,0-6.13-.64c-.15,0-.23-.23-.23-.69s.08-.7.23-.7l5.67.12q4.77.22,7.83.23c2.2,0,4.88-.08,8.06-.23l5.56-.12c.15,0,.23.23.23.7s-.08.69-.23.69a21.51,21.51,0,0,0-6.07.64,4,4,0,0,0-2.67,2.32,14.76,14.76,0,0,0-.68,5.17Z"/><path class="cls-1" d="M168.46,93.68A34.21,34.21,0,0,1,155.75,80a40.36,40.36,0,0,1-4.49-18.86q0-12,5.91-20.49a37.15,37.15,0,0,1,15.15-12.82,44.44,44.44,0,0,1,18.89-4.3,34.48,34.48,0,0,1,31.49,18.8,38.76,38.76,0,0,1,4.37,18,36.11,36.11,0,0,1-5.45,19.39A39.44,39.44,0,0,1,207,93.62a39.86,39.86,0,0,1-19.8,5.11A35.11,35.11,0,0,1,168.46,93.68Zm36.2-1.33a26.14,26.14,0,0,0,9.42-11.2,41.22,41.22,0,0,0,3.46-17.59,46.66,46.66,0,0,0-3.8-19.26A30.73,30.73,0,0,0,202.9,31.07a28.49,28.49,0,0,0-16.34-4.76q-12.15,0-18.95,8.18T160.8,57.06a49.43,49.43,0,0,0,3.86,19.85A33.8,33.8,0,0,0,175.44,91a25.7,25.7,0,0,0,15.77,5.17A24.37,24.37,0,0,0,204.66,92.35Z"/><path class="cls-1" d="M247.76,45.81A21.84,21.84,0,0,0,253,51.49q3.08,2.32,8.63,5.69,5.79,3.6,9.08,6.15a23.28,23.28,0,0,1,5.61,6.38,17.16,17.16,0,0,1,2.33,9.06,18.6,18.6,0,0,1-10.89,17.35,28.4,28.4,0,0,1-12.6,2.61,31.71,31.71,0,0,1-16.34-4.18,2,2,0,0,1-.8-.81,4.74,4.74,0,0,1-.34-1.39L236.41,76.1c-.07-.31.1-.5.51-.58s.67,0,.74.35a39.18,39.18,0,0,0,7.15,14.68,15.75,15.75,0,0,0,12.94,6.09,14.3,14.3,0,0,0,9.3-3q3.75-3,3.75-9.86a17.19,17.19,0,0,0-2.27-9,24.13,24.13,0,0,0-5.5-6.38,83,83,0,0,0-8.8-6c-3.71-2.39-6.58-4.39-8.62-6a20.91,20.91,0,0,1-5.22-6,16.7,16.7,0,0,1-2.16-8.65,16.34,16.34,0,0,1,3.06-10,18.58,18.58,0,0,1,8.06-6.16,27.83,27.83,0,0,1,10.55-2,35.08,35.08,0,0,1,13.51,2.67c1.13.55,1.7,1.24,1.7,2.09l.68,13.93c0,.31-.21.5-.62.58s-.66,0-.74-.35a28.26,28.26,0,0,0-5.11-11.6c-2.65-3.64-6.46-5.46-11.46-5.46q-6,0-9.13,3.6A13.26,13.26,0,0,0,245.61,38,14.1,14.1,0,0,0,247.76,45.81Z"/><path class="cls-1" d="M300.06,45.81a21.5,21.5,0,0,0,5.22,5.68,101.68,101.68,0,0,0,8.62,5.69q5.79,3.6,9.08,6.15a23.48,23.48,0,0,1,5.62,6.38,17.15,17.15,0,0,1,2.32,9.06A18.6,18.6,0,0,1,320,96.12a28.4,28.4,0,0,1-12.6,2.61,31.74,31.74,0,0,1-16.34-4.18,2,2,0,0,1-.79-.81,4.18,4.18,0,0,1-.34-1.39L288.71,76.1c-.08-.31.09-.5.51-.58s.66,0,.74.35a39.16,39.16,0,0,0,7.14,14.68A15.77,15.77,0,0,0,310,96.64a14.32,14.32,0,0,0,9.31-3q3.73-3,3.74-9.86a17.09,17.09,0,0,0-2.27-9,24,24,0,0,0-5.5-6.38,83,83,0,0,0-8.8-6c-3.7-2.39-6.58-4.39-8.62-6a21.22,21.22,0,0,1-5.22-6,16.7,16.7,0,0,1-2.16-8.65,16.28,16.28,0,0,1,3.07-10,18.49,18.49,0,0,1,8.05-6.16,27.84,27.84,0,0,1,10.56-2,35,35,0,0,1,13.5,2.67c1.14.55,1.71,1.24,1.71,2.09l.68,13.93c0,.31-.21.5-.63.58s-.66,0-.74-.35a28.24,28.24,0,0,0-5.1-11.6q-4-5.46-11.46-5.46-6,0-9.14,3.6A13.31,13.31,0,0,0,297.9,38,14.11,14.11,0,0,0,300.06,45.81Z"/><path class="cls-1" d="M358.13,93.68A34.28,34.28,0,0,1,345.42,80a40.36,40.36,0,0,1-4.48-18.86q0-12,5.9-20.49A37.15,37.15,0,0,1,362,27.82a44.44,44.44,0,0,1,18.89-4.3,34.48,34.48,0,0,1,31.5,18.8,38.75,38.75,0,0,1,4.36,18A36.19,36.19,0,0,1,411.3,79.7a40.3,40.3,0,0,1-34.39,19A35.14,35.14,0,0,1,358.13,93.68Zm36.2-1.33a26.14,26.14,0,0,0,9.42-11.2,41.07,41.07,0,0,0,3.46-17.59,46.66,46.66,0,0,0-3.8-19.26,30.73,30.73,0,0,0-10.84-13.23,28.49,28.49,0,0,0-16.34-4.76q-12.15,0-19,8.18t-6.81,22.57a49.6,49.6,0,0,0,3.86,19.85A33.8,33.8,0,0,0,365.11,91a25.7,25.7,0,0,0,15.77,5.17A24.35,24.35,0,0,0,394.33,92.35Z"/><path class="cls-1" d="M511.57,96.64c0,.46-.12.7-.34.7-2.43,0-4.35,0-5.79-.12l-7.83-.12-7.6.12c-1.22.08-2.92.12-5.11.12-.15,0-.23-.24-.23-.7s.08-.7.23-.7a18.66,18.66,0,0,0,5.67-.63A3.79,3.79,0,0,0,493,93a12.85,12.85,0,0,0,.4-5.1l-2.16-51.65L465.83,96.52a.9.9,0,0,1-.9.47,1.43,1.43,0,0,1-1-.47l-28-60L435,84.34q-.12,6.15,2.1,8.88c1.47,1.82,3.95,2.72,7.43,2.72.15,0,.23.24.23.7s-.08.7-.23.7c-2.12,0-3.75,0-4.88-.12l-6.13-.12-6.13.12c-1.06.08-2.57.12-4.54.12-.22,0-.34-.24-.34-.7s.12-.7.34-.7c3.1,0,5.41-.92,6.93-2.78s2.3-4.8,2.38-8.82l1-52.81a10.72,10.72,0,0,0-9.53-5.34c-.23,0-.34-.23-.34-.69s.11-.7.34-.7l4.42.12c.84.07,1.93.11,3.29.11,1.52,0,2.78,0,3.81-.11s1.83-.12,2.44-.12a3,3,0,0,1,2.38,1,29.11,29.11,0,0,1,2.84,5l25.3,53.38L492.16,27.7q1.24-2.89,3.41-2.9c.37,0,.94,0,1.7.12s1.74.11,3,.11l5.67-.11c.84-.08,2.12-.12,3.86-.12.15,0,.23.23.23.7s-.08.69-.23.69c-3.78,0-6.49.6-8.11,1.8s-2.4,3.35-2.33,6.44l2.38,53.51a17.86,17.86,0,0,0,.91,5.22,3.82,3.82,0,0,0,2.56,2.2,22.4,22.4,0,0,0,6.07.58C511.45,95.94,511.57,96.18,511.57,96.64Z"/></svg>