<svg id="Capa_1" data-name="Capa 1" xmlns="http://www.w3.org/2000/svg" viewBox="0 0 259.11 379"><defs><style>.cls-1{fill:#e5e2d9;}</style></defs><path class="cls-1" d="M126.18,288.47l-.54,0h0l.06,1.24c.06,1,.12,1.93.21,2.89a118.75,118.75,0,0,0,3.79,19.34,1.45,1.45,0,0,0,.38-.11h0a208.83,208.83,0,0,1-3.18-23.25Z"/><path class="cls-1" d="M141.5,288.36h-.56a5.3,5.3,0,0,0-.69,0,.11.11,0,0,0-.1.1l-.05,1.63c-.08,2.29-.21,4.76-.43,7.79l0,.84c0,.63-.09,1.26-.13,1.8A325.79,325.79,0,0,1,133.38,342h.33a291.06,291.06,0,0,0,7-41.42c.38-3.85.65-8.11.88-12.14a.09.09,0,0,0,0-.08A.08.08,0,0,0,141.5,288.36Z"/><path class="cls-1" d="M198.11,113.92s.1-.17.11-.2h0s-.11.16-.15.2a3.58,3.58,0,0,1-1.17-.8,16,16,0,0,0-4-3.39l-.09,0-.36-.21a7.37,7.37,0,0,0-1.59-.69,6.11,6.11,0,0,0-2.59,0,2.19,2.19,0,0,0-.41.15l-.19.08a.28.28,0,0,1-.28,0,.26.26,0,0,1-.05-.28,5.38,5.38,0,0,1,.36-.67c.07-.12.15-.22.23-.34l.22-.33c.09-.15.23-.32.33-.49a10.25,10.25,0,0,0,.91-1.46,7.59,7.59,0,0,0,.66-5.19c-.18-.78-.48-1.78-.7-2.72a3.18,3.18,0,0,0-1.94-2.2l-.25,0-.17,0a.52.52,0,0,1-.28-.11c-.07-.08-.05-.22-.05-.31a1.54,1.54,0,0,0-.9-1.6.78.78,0,0,0-.39-.06H185a5,5,0,0,0-2,.43,23.58,23.58,0,0,0-4.45,3.25,7.72,7.72,0,0,0-.63.72,2.69,2.69,0,0,1-.22.28.28.28,0,0,1-.23.09.27.27,0,0,1-.2-.16,3,3,0,0,0-1.59-1.5.87.87,0,0,0-.29-.07A6.26,6.26,0,0,0,171,98.07c-.05,0,0-.06-.07.07s-.16.18-.34.2c-1.28.13-2.19.06-3.14,1.18a10.62,10.62,0,0,0-2.24,5.87v.14c0,.31,0,.66,0,1a11.88,11.88,0,0,0,.8,3.8c.26.6.53,1,.81,1.59s.57,1.05.86,1.6l.09.18a17.74,17.74,0,0,0,2.21,3.16.32.32,0,0,1,.07.25.26.26,0,0,1-.16.19,47.63,47.63,0,0,0-9.48,4.85.23.23,0,0,1-.24,0,.22.22,0,0,1-.13-.21c.57-9.88,1.44-19.1,4.54-28.58a.28.28,0,0,1,.27-.17h.38c.07,0,.08,0,.11,0a4.25,4.25,0,0,0,3-2.7,2.68,2.68,0,0,0-.7-3.19,3.81,3.81,0,0,0-5.49.59,3.22,3.22,0,0,0-.43,2.45,4.23,4.23,0,0,0,1.42,2.27.27.27,0,0,1,.1.3,92.37,92.37,0,0,0-4.5,28,.44.44,0,0,1,0,.15,14.69,14.69,0,0,1-2.79,6.69.25.25,0,0,1-.29.08.26.26,0,0,1-.17-.24,57.17,57.17,0,0,0-2.68-18,.3.3,0,0,1,0-.25c0-.06.1-.1.13-.13a.45.45,0,0,0,.07-.07c.86-2,1.21-3.62-.64-5.26a2.66,2.66,0,0,0-3.26.05,3.53,3.53,0,0,0-1.83,3.4,3,3,0,0,0,1.46,2.14,4.64,4.64,0,0,0,2.81.42.28.28,0,0,1,.28.17,62.13,62.13,0,0,1,2.34,19.43.31.31,0,0,1-.07.17,111.5,111.5,0,0,0-10,10.93c-.51.67-.7,1.09-1.11,1.73-.21.33-.34.6-.55.92a.24.24,0,0,1-.3.1.24.24,0,0,1-.17-.27c0-.33.1-.84.14-1.13a60.38,60.38,0,0,0,.58-8.84,5.53,5.53,0,0,0,0-.74,6.31,6.31,0,0,1,0-.75c0-.09.1-.12.2-.18,1.83-1.11,2.93-2.2,2.74-4.51-.11-1.44-1.35-2.2-2.63-2.78a2.64,2.64,0,0,0-1.25-.22,3.79,3.79,0,0,0-2.57,1.12,4.06,4.06,0,0,0-.42,4.41c.66,1.43,1.52,1.69,2.85,2.22.12,0,.22.09.21.27s0,.34,0,.56,0,.43-.05.73,0,.13,0,.46a8,8,0,0,1-.08,1.07c-.13,1-.35,2.61-.6,3.91-.41,2.16-1.12,7.18-1.28,8.86-.41,4.38-1,8.31-1.51,11.76-.37,2.3-.48,2.69-.78,4.43-.18,1-.27,1.42-.41,2.25l-.78,4.47c-.16,1-.31,1.87-.47,2.8a.43.43,0,0,0,.62.47h0a2.49,2.49,0,0,0,1.42-1.73c.13-.48.22-1.21.3-1.68.18-.94.31-1.71.47-2.63s.34-1.94.51-2.89c.26-1.54.56-3.13.8-4.66.62-3.87,1.08-7.71,1.45-11.6a.19.19,0,0,1,0-.1l.48-.86c.67-1.21,1.33-2.38,2-3.57a.38.38,0,0,1,.09-.09,47.74,47.74,0,0,1,10.74-4.75.28.28,0,0,1,.28.11,5.58,5.58,0,0,0,2.7,2.23A3.78,3.78,0,0,0,161,141a4.38,4.38,0,0,0,1.67-4.43,3.17,3.17,0,0,0-2.61-3c-3-.33-5.58,1.19-5.41,3.68,0,.11,0,.22,0,.33s0,.2,0,.3a.32.32,0,0,1-.21.24,50.85,50.85,0,0,0-8.1,3,.28.28,0,0,1-.32-.06.24.24,0,0,1,0-.31c1.34-1.8,2.69-3.49,4.21-5.16.87-1,1.87-1.92,2.8-2.86l.26-.25c.83-.83,1.64-1.64,2.44-2.49l.77-.83a21.14,21.14,0,0,0,3.24-5.06.38.38,0,0,1,.11-.11c3.18-1.84,6.13-3.93,9.52-5.37a.24.24,0,0,1,.25.07.25.25,0,0,1,.06.26,21.94,21.94,0,0,0-1.1,5.87,11.28,11.28,0,0,1-.77,3.09c-.08.19-.23.61-.31.84,0,0,0,0,0,.08s0,0-.05.13a5.12,5.12,0,0,0,.82,4.7,2.63,2.63,0,0,0,1.5.91,8.52,8.52,0,0,0,4-.42.93.93,0,0,0,.2-.08l.15-.07a8.55,8.55,0,0,0,3.28-2.29,1,1,0,0,0,.09-.13l.07-.09a.35.35,0,0,1,.16-.09c.06,0,.09-.06.16-.06a.67.67,0,0,1,.24.07,1.06,1.06,0,0,0,.17.1,13.28,13.28,0,0,0,2.08,1c.09,0,.14,0,.19,0a1.67,1.67,0,0,1,.67.51,7.31,7.31,0,0,0,3,2.43,3.1,3.1,0,0,0,.7.14h.08a8.76,8.76,0,0,1,1,.18c.36.11.81.28,1.18.42l.24.09a8.87,8.87,0,0,0,.87.29,15.7,15.7,0,0,0,2.86.43c.62,0,1,.07,1.46-.44s.44-.83.38-1.63a18.1,18.1,0,0,1,.16-4.7,2.91,2.91,0,0,0,.05-1.23c-.57-1.88-1.3-3.5-2-5.29a.23.23,0,0,1,0-.21.27.27,0,0,1,.18-.13,11,11,0,0,0,7.26-4.66,1.86,1.86,0,0,0,.19-.34c0-.11.2-.37.27-.52a4.31,4.31,0,0,0,.53-1.33A2.65,2.65,0,0,0,198.11,113.92ZM178.51,99.8c0-.07.09-.16.13-.23s.07-.14.1-.2,0-.1.08-.15a6.16,6.16,0,0,1,1.75-1.62l.16-.1.86-.64c.08-.06.18-.15.27-.21a6.17,6.17,0,0,1,1.45-.83,7,7,0,0,1,1.17-.21l.14,0a.28.28,0,0,1,.17,0,.32.32,0,0,1,.11.17s0,.07,0,.11a.57.57,0,0,0,0,.13,2,2,0,0,0,1.49,1.59,2.9,2.9,0,0,1,.94.64,1,1,0,0,1,.17.55c0,.17,0,.13,0,.27a3.55,3.55,0,0,1,.09.47c0,.13,0,.26.07.38a10.43,10.43,0,0,0,.38,1.2s0,.06.05.14a1.63,1.63,0,0,1,.11.28,5.56,5.56,0,0,1-.32,3.4,28.12,28.12,0,0,1-1.78,2.94,4.71,4.71,0,0,0-.72,1.83.29.29,0,0,1,0,.1,9.3,9.3,0,0,1-2.12,2.81l-.11.09-.5.23c-.76.48-.84-.45-.81-.55a4.39,4.39,0,0,1,1.89-2.64c.17-.11.23-.2.23-.34a.81.81,0,0,0-.45-.75c-.19-.13-.54-.31-.78-.14a.58.58,0,0,0-.22.75,1.14,1.14,0,0,1-.12.89c-.14.3-.27.55-.41.82l-.45.86c-.25.49-.51,1-.74,1.51a.23.23,0,0,1-.15.14h0a.23.23,0,0,1-.18,0h0a.87.87,0,0,1-.21-.25l-.13-.21a2.25,2.25,0,0,1-.12-1.91,2.21,2.21,0,0,0-.11-1.61l-.07-.08a12,12,0,0,1,2-3.47l.1-.12.05,0a1.57,1.57,0,0,1,.69-.5l.07,0a.58.58,0,0,0,.41-.18.47.47,0,0,0,.06-.42.58.58,0,0,0-.31-.4,1,1,0,0,0-.69-.13c-.51.17-.53.17-.51.65a2.18,2.18,0,0,1-.59,1.37,13.67,13.67,0,0,0-1.4,2.22c0-.58.06-1.18.08-1.61a12.6,12.6,0,0,1,.19-1.37c0-.27.09-.39.11-.59s.08-.32.09-.49a2.83,2.83,0,0,0-.09-1.46,14.36,14.36,0,0,0-1.06-2.11l-.39-.72A.24.24,0,0,1,178.51,99.8ZM169,112.33c-.11-.19-.16-.38-.24-.54s-.12-.33-.18-.46c-.92-2-1.75-4.55-1.47-6.59.25-1.8,1-2.08,2-3.27.18-.23.41-.29.6-.5a1.53,1.53,0,0,1,.32-.22l.23-.16,1.21-.85.7-.48a.11.11,0,0,1,.06,0,6.45,6.45,0,0,0,.92-.5,2.36,2.36,0,0,1,1.32-.39.68.68,0,0,1,.22,0,1.26,1.26,0,0,1,.67.58,22.66,22.66,0,0,0,1.17,2.09,2.29,2.29,0,0,1,.15.24,6.63,6.63,0,0,1,1.12,2.26,3.25,3.25,0,0,1-.21,1.55,4.74,4.74,0,0,1-.17.53c0,.19-.11.39-.16.56a6.42,6.42,0,0,0-.21.87,5.2,5.2,0,0,0,.2,2.13,9.69,9.69,0,0,1,.47,3.08,4.17,4.17,0,0,0,.37,1.85c0,.07.14.09.18.19a2.7,2.7,0,0,1,.14.4c0,.1,0,.1,0,.18a.5.5,0,0,1,.05.27,9.91,9.91,0,0,1-.47,1.52.22.22,0,0,1-.17.14c-.27.06-.57.11-.83.14a16.19,16.19,0,0,1-3,.07l-.27,0-.22,0-.09,0A11.63,11.63,0,0,1,169,112.33Zm9.14,11.83a23.68,23.68,0,0,1-.13,2.76c0,.32-.12.91-.17,1.27a.22.22,0,0,1,0,.1c-.2.38-.41.79-.6,1.18a.25.25,0,0,1-.09.09c-.31.32-.64.62-1,.9a.34.34,0,0,0-.09.08l-.13.11-.21.19a5.66,5.66,0,0,1-1.26.9,5.85,5.85,0,0,1-1.7.45,7.87,7.87,0,0,1-1.61,0c-.13,0-.26,0-.38-.06l-.38-.06-.19,0A1.16,1.16,0,0,1,170,132a2,2,0,0,1-.75-.71l0-.08a1,1,0,0,1-.08-.23l-.08-.2a.26.26,0,0,1,0-.17l.09-.51a9.5,9.5,0,0,1,.64-2.15.94.94,0,0,1,0-.09,7.94,7.94,0,0,0,1.14-3.68,12.45,12.45,0,0,1,.32-4.08,3.35,3.35,0,0,1,.94-1.34.34.34,0,0,1,.3-.11,7.62,7.62,0,0,1,2,0,11.9,11.9,0,0,0,1.48.07,10.71,10.71,0,0,0,2.34-.36.2.2,0,0,1,.17,0,2.94,2.94,0,0,1,.81,1,.21.21,0,0,1,0,.19c-.14.5-.27.92-.43,1.44s-.39,1.16-.53,1.7A5.21,5.21,0,0,0,178.14,124.16Zm13,4.85a.83.83,0,0,1-.06.43c0,.13,0,.06,0,.06s0,.17-.06.31a1.51,1.51,0,0,0-.06.34c0,.22,0,.65,0,1,0,.13,0,.44,0,.62a18.78,18.78,0,0,1-.05,2.6.8.8,0,0,1-.19.33c-.06.08,0,0-.06.07s-.13.08-.16.09h0a2,2,0,0,1-.56,0,.69.69,0,0,1-.18-.05l-.15,0a3.53,3.53,0,0,0-.55-.1l-.5,0a2.14,2.14,0,0,1-.44-.08c-.61-.21-1.2-.42-1.83-.6l-.93-.24-.94-.25-.23-.07a3.61,3.61,0,0,1-.67-.27,1.06,1.06,0,0,1-.11-.09l-.09-.07-.12,0h0l-.08-.06a7.06,7.06,0,0,1-.9-1,3.55,3.55,0,0,0-.35-.44l-.07-.08a.13.13,0,0,0-.06-.05l-.08-.06-.49-.28a12.07,12.07,0,0,1-1.43-.93l-.08-.06a1.73,1.73,0,0,0-.2-.14.24.24,0,0,1-.11-.15c0-.06-.06-.1-.06-.17a1.73,1.73,0,0,1,.26-1.34,6.67,6.67,0,0,0,.52-4,3.4,3.4,0,0,1,.22-1.75l0,0,.27.25.39.33c.22.18.53.46.73.65a1.61,1.61,0,0,0,1.3.55c.31,0,.42,0,.52-.18s.08-.13,0-.29c-.21-.45-.78-.59-1.39-.7a2.59,2.59,0,0,1-1.06-.5.24.24,0,0,1,0-.32.26.26,0,0,1,.33-.09,8.05,8.05,0,0,0,2.41.64l.12,0a7.73,7.73,0,0,1,1.73.4.71.71,0,0,0,.81-.12l.15-.16a.35.35,0,0,0,.06-.24.55.55,0,0,0-.22-.39l-.09-.09-.11-.06c-.2-.11-.2-.11-.54,0l-.18.06a7.22,7.22,0,0,1-3-.36,1,1,0,0,0-.28-.06l-.21,0a.26.26,0,0,1-.28-.16.28.28,0,0,1,.06-.31h0a.94.94,0,0,1,.86-.06,3.79,3.79,0,0,0,.58,0l.23,0,.22,0a3,3,0,0,0,.67,0h.21c.22,0,.6,0,.79,0s.45,0,.56.05a4.68,4.68,0,0,1,3.16,1.88c.07.08,0,.08.07.13a.75.75,0,0,1,.09.09l0,.06v0a.15.15,0,0,1,0,0l.06.11,0,.06a4.87,4.87,0,0,1,.44.85.14.14,0,0,1,0,.06c.05.13.11.32.15.43s.08.21.12.29A12.6,12.6,0,0,1,191.11,129Zm6.17-12.29a6,6,0,0,1-.51,1.11l-.17.31-.16.28c-.15.29-.32.6-.44.87a2.08,2.08,0,0,1-.54.76,13,13,0,0,1-4.32,2h0a.35.35,0,0,1-.17-.06,8.42,8.42,0,0,0-3.14-1.29c-.1,0-.27,0-.36-.08a17.69,17.69,0,0,1-3-.91,2.35,2.35,0,0,1-.25-.18.49.49,0,0,1-.09-.15c0-.09.19-.25.27-.31l.07-.06.2-.16.21-.14a3.92,3.92,0,0,1,2.06-.93,3,3,0,0,1,2.12.66.56.56,0,0,0,.68-.12.81.81,0,0,0,.18-.82c-.06-.17-.12-.22-.21-.26s-.07,0-.2,0a3.94,3.94,0,0,1-1.8.07,4.64,4.64,0,0,0-1.39,0,5.18,5.18,0,0,0-1.75.89l-.42.28c-.1.07-.19.15-.31.22a.24.24,0,0,1-.29,0,1.28,1.28,0,0,1-.4-.83.82.82,0,0,1,.19-.77,4.92,4.92,0,0,1,2.24-1l.1,0h.1a1.25,1.25,0,0,1,.77,0l.13.09c.12.08.15.09.23.08s.21,0,.36-.2a.62.62,0,0,0,0-.7.64.64,0,0,0-.74-.29c-.23.1-.34.16-.48.23l-.18.08a14.1,14.1,0,0,1-3,1.17c.1-.25.14-.64.25-.68a2.14,2.14,0,0,0,1.15-1.36,8.19,8.19,0,0,1,3.63-.88h.07a1.65,1.65,0,0,1,.71.16.62.62,0,0,0,.5.07.51.51,0,0,0,.3-.28.73.73,0,0,0-.2-.84.57.57,0,0,0-.46-.18c-.15,0-.24.06-.41.2a.6.6,0,0,1-.49.29,9.75,9.75,0,0,0-3.15.59c.22-.21.38-.29.61-.53.51-.55,1-1.17,1.46-1.78l.07-.11a.26.26,0,0,1,.09-.09,3.9,3.9,0,0,1,2.95-.75,1.89,1.89,0,0,1,.63.25c.18.08.31.17.44.24l.93.49.24.1a7.27,7.27,0,0,1,2.06,1.53c.11.12.25.32.4.52a9.39,9.39,0,0,0,1.13,1.25l.07.05.24.11a1.59,1.59,0,0,1,.3.14c.11.06.12,0,.28.13a1,1,0,0,1,.51.36A2,2,0,0,1,197.28,116.72Z"/><polygon class="cls-1" points="97.18 180.16 97.17 180.16 97.17 180.16 97.18 180.16"/><path class="cls-1" d="M117.38,170.72c.31-.58.62-1.16,1-1.74a.32.32,0,0,1,.24-.13,3.65,3.65,0,0,0,3.92-2.86c.24-1.06-.19-2-1.36-3a2.91,2.91,0,0,0-3.28-.34,3.47,3.47,0,0,0-1.55,3.59,3.54,3.54,0,0,0,.78,1.87.26.26,0,0,1,0,.27l-.33.6c-.24.45-.49.9-.72,1.35a.26.26,0,0,1-.24.14.25.25,0,0,1-.23-.15l-.12-.24a15.47,15.47,0,0,0-.74-1.46l-2.07-3.57c-1.09-1.87-2.19-3.76-3.26-5.62a.26.26,0,0,1,0-.28,2.31,2.31,0,0,0,.35-.5,3.77,3.77,0,0,0-1.64-5c-1-.52-2-.33-3.3.58a3,3,0,0,0-1.19,3.22c.43,1.86,2.34,2.36,3.14,2.49a3.17,3.17,0,0,0,.81,0l.37,0a.26.26,0,0,1,.23.13c.73,1.29,1.58,2.71,2.39,4.09,1,1.62,2,3.31,2.78,4.76a18,18,0,0,1,2.34,7.9c.07.71.09,1.58.12,2.42s0,1.51.09,2.17a.23.23,0,0,1-.1.22.28.28,0,0,1-.25,0,21.18,21.18,0,0,0-7.2-1.24.38.38,0,0,1-.15,0,.27.27,0,0,1-.22-.11.24.24,0,0,1,0-.23,7.83,7.83,0,0,0,.38-1.45l0-.14c.06-.33.12-.64.17-1s.14-.73.2-1.14a4.25,4.25,0,0,0-.16-1.78,2.86,2.86,0,0,1-.07-.28,1.67,1.67,0,0,0-.08-.32V174a5.13,5.13,0,0,0-2-2.87,1.8,1.8,0,0,0-1.75-.15.31.31,0,0,1-.28-.06l0,0a2.67,2.67,0,0,0-2.57-.39.32.32,0,0,0-.13.07,1.31,1.31,0,0,0-.63.92.25.25,0,0,1-.17.19.26.26,0,0,1-.25,0l-.09-.07c-.14-.1-.28-.2-.42-.28a11.41,11.41,0,0,0-2.78-1.15,1.73,1.73,0,0,0-.75,0l-.49.09-.1,0-.11.06c-.31.13-.27.7-.22.86l0,.1a0,0,0,0,0,0,0,.25.25,0,0,1-.19.3h-.11l-.08,0a1.6,1.6,0,0,0-.73,1.46,10.62,10.62,0,0,1,0,1.59,3.67,3.67,0,0,0,1,2.69,4.46,4.46,0,0,0,.64.66l.25.23.18.16.14.13c.08.08.11.1.16.16a.28.28,0,0,1,0,.3.25.25,0,0,1-.25.16l-.19,0a2.56,2.56,0,0,0-1.36.32,4.07,4.07,0,0,0-.72.58l-.17.18a6.33,6.33,0,0,0-1.6,2.27,1.52,1.52,0,0,1-.46.63,1.3,1.3,0,0,0-.46,1.67,2.28,2.28,0,0,0,.45.63l.13.16.21.24a4.59,4.59,0,0,0,4.42,1.5.29.29,0,0,1,.22.07.28.28,0,0,1,.07.21c-.1,1-.2,1.92-.25,3a1.28,1.28,0,0,0,.19.64,8.58,8.58,0,0,1,.75,2.62,1,1,0,0,0,.38.78.63.63,0,0,0,.35.09,1.29,1.29,0,0,0,.4-.08,8.4,8.4,0,0,0,1.44-.64,3.29,3.29,0,0,0,.46-.3,7.13,7.13,0,0,1,.67-.45,2.92,2.92,0,0,1,.47-.23,1.69,1.69,0,0,0,.38-.18,3.41,3.41,0,0,0,1.27-1.73.68.68,0,0,1,.3-.38l.09-.06a6.24,6.24,0,0,0,1-.84.59.59,0,0,1,.08-.08.33.33,0,0,1,.27-.11.55.55,0,0,1,.22.09,4.05,4.05,0,0,0,2.13.8l.19,0a3.78,3.78,0,0,0,2.18-.34,2.22,2.22,0,0,0,.67-.7c1.14-1.81-1.24-4.3-1.36-4.76a7.59,7.59,0,0,0-1.2-2.8.24.24,0,0,1,0-.27.25.25,0,0,1,.24-.13,20,20,0,0,1,7.25,1.52.27.27,0,0,1,.16.22c.08,1.71.15,3.5.23,5.28.1,2.33.19,4.67.31,6.85a8,8,0,0,0,1.19,3.82l.08.15a.24.24,0,0,1,0,.27.25.25,0,0,1-.25.1l-3.26-.48-2.12-.31a.29.29,0,0,1-.18-.1.34.34,0,0,1,0-.14,3.47,3.47,0,0,0-3.94-2.84c-1,.15-1.68.87-2.16,2.27a2.84,2.84,0,0,0,.86,3.07,3.18,3.18,0,0,0,3.69.14,3.52,3.52,0,0,0,1.08-.91l.06-.06a.27.27,0,0,1,.19-.08h0l3.2.46,4.48.65a.26.26,0,0,1,.16.09c.35.41.77.86,1.19,1.32s.94,1,1.29,1.44a22.68,22.68,0,0,1,4.52,8c.45,1.34.94,3,1.43,4.64.28,1,.57,1.91.83,2.77v.09c-.23,1.8-1,8-1.36,12.33-1,12.22-1.72,23.84-2.14,38.67,0,1.47-.1,4.31-.07,6.77a.12.12,0,0,0,.12.12c.27,0,.53,0,.8,0h.2a.19.19,0,0,0,.1,0,.12.12,0,0,0,0-.09c0-2.4,0-4.56.06-6.67.42-12.24,1.21-23.14,2.63-38.75.61-6.7,1.77-15.57,3.1-23.74a.14.14,0,0,0,0-.06.28.28,0,0,1,.29-.16c.21,0,.23.22.26.4,1.32,8.57,2.46,15.49,3.58,21.82.53,2.95.9,5.22,1.2,7.38.1.68.2,1.34.31,2s.23,1.5.34,2.26c.32,2.38.56,4.79.79,7.13l.46,4.57c.53,8.15.79,15.5.75,23.13a4.17,4.17,0,0,0,1.1,0l.19,0a.37.37,0,0,0,.33-.36c0-6,0-14-.64-22.82,0-.72-.12-1.4-.19-2.09l-.14-1.5c-.25-2.7-.51-5.49-.86-8.23q-.15-1.12-.33-2.25c-.09-.6-.18-1.2-.26-1.81-.34-2.43-.74-5-1.19-7.67-.91-5.27-1.75-10.64-2.53-15.69-.35-2.26-.69-4.47-1-6.7l-.19-1.17-.48-3c-.16-1-.32-2-.48-3v-.07l.73-4.12c.4-2.42.74-4.2,1.11-6.43a.6.6,0,0,0-.47-.68c-.2,0-.5-.07-.77-.1a.57.57,0,0,0-.64.47l-.52,2.92h0l-.13.81a.27.27,0,0,1-.26.22h0a.27.27,0,0,1-.26-.22c-.23-1.44-.45-2.64-.67-4a.86.86,0,0,0-.73-.73c-.24,0-.68,0-.94,0a.16.16,0,0,0-.16.19c.18,1.21,1.16,7.75,1.77,11.91v.07l-.39,2.48c-.6,3.81-1.22,7.75-1.75,11.73a.25.25,0,0,1-.23.22.25.25,0,0,1-.27-.17c-.27-.74-.41-1.09-.54-1.43s-.33-.87-.75-2.06a25.62,25.62,0,0,0-4.48-7.85l-.4-.43c-.92-1-2.31-2.49-3.13-3.53a7.07,7.07,0,0,1-1.86-4.61c-.17-3.22-.31-6.69-.45-10-.12-2.83-.24-5.64-.37-8.31a18.88,18.88,0,0,0-.63-4,.31.31,0,0,1,0-.19C116.75,171.88,117.07,171.3,117.38,170.72Zm-15.57,2.66,0-.08v0a8.24,8.24,0,0,0,.32-1.18.54.54,0,0,1,.26-.39.56.56,0,0,1,.15-.08.94.94,0,0,1,.75,0l.26.07a1.14,1.14,0,0,1,.25.06,5.49,5.49,0,0,1,.71.25l.4.15.08,0,.25.1.37.17a2.45,2.45,0,0,1,1.41,1.28,6.46,6.46,0,0,1,.22,3.51l0,.22c0,.09,0,.18,0,.3a4.29,4.29,0,0,1-1.55,2.87l-.07,0-.24.1a7,7,0,0,1-2,.44h0a.24.24,0,0,1-.18-.09,4.14,4.14,0,0,1-.44-.65.44.44,0,0,1,0-.16v-.07a1,1,0,0,1,0-.27c0-.06,0-.1.06-.13a1.35,1.35,0,0,0-.07-.9,3.65,3.65,0,0,1-.19-1.58,2,2,0,0,0-.18-1.06,3.24,3.24,0,0,0-.22-.4l-.16-.26-.14-.22a1.55,1.55,0,0,1-.33-.73A3.53,3.53,0,0,1,101.81,173.38Zm-5.37,3.33h0A2.47,2.47,0,0,1,95.9,175a1,1,0,0,1,0-.17l0-.18a4.53,4.53,0,0,0,0-.52c0-.11,0-.22,0-.33v-.14a.39.39,0,0,1,0-.11.37.37,0,0,1,0-.28,1.24,1.24,0,0,1,.41-.5c.44-.3.57-.53.51-.94a.19.19,0,0,1,0-.19.24.24,0,0,1,.15-.11,2.85,2.85,0,0,1,.65-.05,2.69,2.69,0,0,1,.8.25l.11.05.53.22.11,0a2.33,2.33,0,0,1,1,.58l0,0,.06.06a.81.81,0,0,1,.12.14.19.19,0,0,1,0,.18l-.06.21a9.93,9.93,0,0,0-.3,1.35,1.06,1.06,0,0,0,.12.66,2.38,2.38,0,0,1,.12.27l.14.29a5.83,5.83,0,0,1,.25.59c.17.49.28.82.33,1h0a.22.22,0,0,1-.09.1.27.27,0,0,1-.33-.05,10.31,10.31,0,0,0-1.35-1.16,1.29,1.29,0,0,1-.63-.73c0-.24-.1-.24-.35-.23s-.18.06-.29.16a.31.31,0,0,0-.11.29.21.21,0,0,0,.09.18.39.39,0,0,0,.23,0,.86.86,0,0,1,.54.15l.12.07a9.67,9.67,0,0,1,2.34,2.38,1.26,1.26,0,0,1-1.09,1.23l0,0-.29-.29a2.08,2.08,0,0,0-.21-.21l-.39-.4a.74.74,0,0,1-.24-.53c0-.05,0-.29-.21-.33s-.2,0-.38.24a.48.48,0,0,0-.08.44c0,.07,0,.09.16.11a2.57,2.57,0,0,1,1.48,1s0,0,0,.06l0,0a.28.28,0,0,1-.18,0,3.41,3.41,0,0,1-1.49-1.08,2.89,2.89,0,0,0-.68-.93A11,11,0,0,1,96.44,176.71Zm.71,9.41a.21.21,0,0,1-.17.1h-.35a5.24,5.24,0,0,1-2-.41,1.08,1.08,0,0,1-.39-.34c-.1-.13-.21-.25-.32-.37l-.22-.25a2.4,2.4,0,0,1-.39-.48,1.12,1.12,0,0,1-.11-.68.53.53,0,0,1,.24-.28l.08-.07a.58.58,0,0,1,.14-.12l.09-.07a3.67,3.67,0,0,0,.4-.79c0-.13.1-.24.13-.31a2.77,2.77,0,0,1,.77-1l.06,0c.21-.18.36-.32.51-.47l.08-.07a1.46,1.46,0,0,1,.29-.23,1.9,1.9,0,0,1,.83-.22,1.65,1.65,0,0,1,.78.2l.08.06a6.72,6.72,0,0,0,1,.72l.15.07.12,0,0,0s0,0,0,0-.13.18-.27.21a5.57,5.57,0,0,0-2,.28.45.45,0,0,1-.28-.06l-.07,0c-.12,0-.14-.05-.18,0s-.15.07-.21.18a.4.4,0,0,0,0,.45.24.24,0,0,0,.16.09h0c.06,0,.12,0,.24-.12a1,1,0,0,1,.43-.26,5.57,5.57,0,0,1,3.35,0,1.57,1.57,0,0,1,.4.64.28.28,0,0,1-.17.11,4.41,4.41,0,0,1-1.66,0l-.43,0-.17,0-.26,0a.34.34,0,0,0-.3.27.36.36,0,0,0,.09.34.22.22,0,0,0,.2.05s0,0,.08-.08l.06-.08a.87.87,0,0,1,.49-.17l.1,0a2.93,2.93,0,0,1,1.48.16.48.48,0,0,1,.28.39.33.33,0,0,1,0,.12,2.8,2.8,0,0,1-.48.56l-.16,0-.23-.07a2.92,2.92,0,0,0-1.09-.16,2.25,2.25,0,0,0-.76.27,2.56,2.56,0,0,1-1,.31H96.6a.21.21,0,0,0-.06.17.45.45,0,0,0,.23.39.25.25,0,0,0,.32-.05,1.88,1.88,0,0,1,1.11-.81,2.5,2.5,0,0,1,1.38.14l.15.05h0a6.56,6.56,0,0,1-1.07.69l-.16.08A3.56,3.56,0,0,0,97.15,186.12Zm7,2.8h0a.45.45,0,0,1-.15.22,7.59,7.59,0,0,1-.64.69l-.22.23a3.11,3.11,0,0,0-.16.34,4.43,4.43,0,0,1-.34.62l0,0h0l0,0h0a.17.17,0,0,0-.06.06.21.21,0,0,1,0,.07,1.54,1.54,0,0,1-.29.23l-.09.05-.4.23-.13.07-.34.2c-.27.16-.53.33-.83.54l-.21.09-.22.07-.25.12-.12.08a.94.94,0,0,1-.3.1h0a.39.39,0,0,1-.31-.21,8.29,8.29,0,0,1-.36-1.32l-.06-.3a3.63,3.63,0,0,0-.14-.51c0-.08,0-.09,0-.11a.46.46,0,0,1-.07-.13.92.92,0,0,1-.11-.26,7.64,7.64,0,0,1,0-2.13,1,1,0,0,1,0-.16v-.1a1.91,1.91,0,0,1,.12-.51h0a.08.08,0,0,1,0-.07h0v0a.09.09,0,0,1,0-.07s0,0,0-.07c.08-.51.6-.92,1.17-1.24l.21-.08a3.18,3.18,0,0,1,.53-.17l.07,0a1.77,1.77,0,0,0,.44-.11l.08,0,.15-.08.31-.13a.71.71,0,0,1,.23,0,.13.13,0,0,1,.06,0l.18.14a.25.25,0,0,1,0,.24.36.36,0,0,1-.14.11l-.06,0a4.15,4.15,0,0,1-1.69.82h-.32l-.08.09,0,0,0,.08a.4.4,0,0,0,0,.23.21.21,0,0,0,.1.11.38.38,0,0,0,.47,0,3.94,3.94,0,0,1,.85-.55l.3-.16a.29.29,0,0,1,.34.06.27.27,0,0,1,0,.34.42.42,0,0,0-.11.23.58.58,0,0,0,0,.14.31.31,0,0,0,.3,0,1,1,0,0,0,.58-.52c.06-.14.2-.39.28-.53l.09-.14c.26.21.48.39.48.45a2.67,2.67,0,0,0,.78,1.87C104.16,188.44,104.22,188.56,104.13,188.92Zm4.3-4.31a4.23,4.23,0,0,0,.94,1.66l.1.12a3.51,3.51,0,0,1,.53.91,3.09,3.09,0,0,0,.13.32.19.19,0,0,1,0,.18s0,0,0,.08,0,.05,0,.08a.09.09,0,0,1,0,0s0,0,0,0a.83.83,0,0,1-.37.49l-.09.05-.1,0-.19.08-.2.08a3.71,3.71,0,0,1-1.35.26,4.36,4.36,0,0,1-.51,0,3.22,3.22,0,0,1-.79-.29l-.14-.07-.08,0-.07,0a4.77,4.77,0,0,1-.6-.3.16.16,0,0,1-.08-.06l-.06,0a1.94,1.94,0,0,1-.41-.49,2.43,2.43,0,0,1-.19-.47c0-.06,0-.13-.07-.18a7.23,7.23,0,0,1-.36-1.3l0-.06a2.07,2.07,0,0,0-.27-.7l-.52-.81-.38-.61a.2.2,0,0,1,0-.17,1.29,1.29,0,0,1,.31-.56.23.23,0,0,1,.18-.08,5.06,5.06,0,0,0,1.25-.13,8.15,8.15,0,0,0,.81-.24,4.24,4.24,0,0,1,1.14-.29.37.37,0,0,1,.18,0,1.78,1.78,0,0,1,.75.56A5.45,5.45,0,0,1,108.43,184.61Z"/><path class="cls-1" d="M133.2,97.4a2.7,2.7,0,0,0-2.36,1.25c-.23.44-.47.87-.71,1.29l-.23.38a3.45,3.45,0,0,1-.2.32c-.37.6.09,1.29.93,1.38h.11A81.76,81.76,0,0,1,141,103.59a2.25,2.25,0,0,0,2.45-.6,8,8,0,0,1,2.24-1.91,7,7,0,0,1,7.37.24c1.47.9,3.38,1.15,3.86-.35l0-.07a1.3,1.3,0,0,0-1.11-1.59C150,97.86,141,97.34,133.2,97.4Z"/><path class="cls-1" d="M58.22,100.05c1.42-.06,2.75-.08,4-.08,2,0,11.11-1.07,30.38,1.49h0a1,1,0,0,0,1-1.44l-.79-1.35c-.2-.35-.52-.9-.83-1.4a2.44,2.44,0,0,0-2.17-1.18q-7.24.23-18,.1l-13.7.23c-.56,0-.82.63-.77,1.84S57.66,100.07,58.22,100.05Z"/><path class="cls-1" d="M97.94,93.9l.06.15c.92,2.29,2,4.83,3,7a39.71,39.71,0,0,0,2.17,3.7,9.81,9.81,0,0,0,1.35,1.67,4.83,4.83,0,0,0,1.27.84.72.72,0,0,1,.36.53,31.33,31.33,0,0,0,.87,4.76c.21.7,1.68,3.53,2,4.23.05.11.06.22-.07.27s-.17,0-.28-.07c-3.12-2.61-6.9-5.72-10.62-7.59a43,43,0,0,0-6.22-1.94c-2.34-.73-4.84-1.29-7.22-1.86l-.26,0-.15,0c-2.09-.16-4.17-.25-6.25-.23a2.42,2.42,0,0,0-.68.16,1.11,1.11,0,0,0-.41.31c-.11.1-.09.21-.13.31s-.49,1.76,2.23,3.54c3.59,2.33,7.82,3.61,11.83,5.17l.25.08c3,.73,5.9,1.72,8.83,2.62,1.38.43,2.75.65,4.16,1a1.68,1.68,0,0,0,.51,0,16.67,16.67,0,0,0,2.88-.42,2,2,0,0,1,1.11.07h0c.17.07.3.11.49.2a1,1,0,0,1,.48.54c.67,2.47,1.47,5.33,2.14,7.67.49,1.73.41,2.94.83,4.54.18.69.35,1.27.51,1.95,0,.09,0,.15-.09.21s-.16,0-.22,0-.11-.06-.16-.08a120.11,120.11,0,0,0-10.51-7.5,27.05,27.05,0,0,0-5.74-2c-2.49-.73-5-1.38-7.54-2a1.41,1.41,0,0,0-.25,0l-.15,0c-2.21-.18-4.39-.28-6.59-.28a1.63,1.63,0,0,0-.72.17c-1.15.59-.31,1.9,0,2.25A6.91,6.91,0,0,0,83,125.88c3.6,1.89,7.32,3.47,11,5.24l.25.1c3,1.05,6.12,2.12,9.17,3a23.76,23.76,0,0,0,2.68.48,9.16,9.16,0,0,0,1.86.16,21.87,21.87,0,0,0,4.19-.79c.06,0,.08-.05.13-.05a.24.24,0,0,1,.12,0,9.45,9.45,0,0,1,1,.46c.07.05.1.06.13.13,2.43,5.27,5.23,10.24,8.15,15.28.92,1.58,1.75,3.38,2.59,5.05a2.8,2.8,0,0,1,.23.69c1.21,6.16,2,12.33,2.69,18.56a.69.69,0,0,0,.79.6h0a.68.68,0,0,0,.55-.73c-.69-6.06-1.54-12-2.71-18,0,0,0,0,0,0-.33-2.34-.72-4.66-1.13-7l-.1-.52c-.32-1.75-.67-3.45-1.1-5.19-.07-.28-.18-.74-.22-1a60,60,0,0,1-.52-9.44c0-1,.17-1.72.25-2.65,0-.35.06-.57.1-.89a.75.75,0,0,1,.13-.36c.73-1.13,1.43-2.28,2.09-3.45l2.24-4.73c.77-2,1.65-3.8,2.47-5.89a9.38,9.38,0,0,0,.7-3.42,6.2,6.2,0,0,0-.83-2.66c-.64-1.19-4.45,2.58-6.41,4.29a.18.18,0,0,1-.2,0,.24.24,0,0,1-.14-.17c0-.2-.06-.46-.09-.64-.07-.54-.12-1.09-.19-1.61-.1-.77-.35-2.27-.47-3-.08-.52-.18-1-.26-1.53a.18.18,0,0,1,0-.14,58,58,0,0,0,3.38-5.58c0-.09.09-.22.12-.31.58-1.86,1.13-3.73,1.6-5.62a2.06,2.06,0,0,0,0-.7.93.93,0,0,0-.25-.47c-.12-.13-.24-.12-.37-.21l-.06,0a5.92,5.92,0,0,0-1.57.06,10.58,10.58,0,0,0-2.72,1.25,31.16,31.16,0,0,0-2.54,2.08.21.21,0,0,1-.19.07c-.08,0-.12-.06-.15-.12-.21-.55-.41-1.13-.6-1.68-.08-.25-.16-.45-.24-.7,0,0,0-.09,0-.13l0-.18a3.17,3.17,0,0,1-.11-.76c0-1.74,0-3.69.11-5.39a.3.3,0,0,1,.07-.15c.23-.3.48-.59.72-.89a3.15,3.15,0,0,0,.24-.3.27.27,0,0,1,.19-.1c1.93-.43,3.81-.21,5.66-1a26.64,26.64,0,0,0,5.13-3,42.36,42.36,0,0,0,3.73-3.3l.19-.18c1.32-1.4,2.72-2.81,4-4.25,1.4-1.61,2.63-3.26,3.93-4.93,0,0,0-.07.06-.1a.37.37,0,0,0,.06-.1c.88-1.46.28-1.71.19-1.82s-.14-.1-.18-.15l-.09-.07-.31-.13-.76-.11a10.69,10.69,0,0,0-4.78,1.43c-2.82,1.69-5.49,3.49-8.19,5.33l-.34.27c-1.72,1.76-3.51,3.5-5.15,5.31a29.51,29.51,0,0,0-2.32,3,16.77,16.77,0,0,0-1,1.81,9.81,9.81,0,0,1-.59,1.39c-.08,0-.15-.1-.15-.21s.12-1,.15-1.28a2.48,2.48,0,0,1,0-.27c.24-1.72.48-3.42.71-5.14,0-.32.11-.73.15-1l.27-2.08c0-.12,0-.27,0-.37a.25.25,0,0,1,.08-.17,41.27,41.27,0,0,0,4-5.13,29.58,29.58,0,0,0,2.49-5.84,29.17,29.17,0,0,0,.93-5.72c.2-2.08.52-4.1.72-6.09.22-2.2.17-4.21.2-6.38,0,0,0-.07,0-.11a.36.36,0,0,0,0-.11c-.08-.35-.19-.7-.3-1a.71.71,0,0,0-.43-.42,3.2,3.2,0,0,0-.45-.1c-.09,0-.12,0-.14,0l-.3.07-.73.4A10,10,0,0,0,123.29,49c-1,3.19-1.85,6.33-2.91,9.47l-.07.25c-.5,2.42-1.1,4.91-1.46,7.32a38.24,38.24,0,0,0-.32,4.89,9.44,9.44,0,0,0,.26,2.16,4.93,4.93,0,0,0,.41,1.06,2.5,2.5,0,0,1,.24,1.57c-.22,1.33-.47,2.7-.68,4-.14.85-.24,1.63-.37,2.44-.08.49-.15.94-.22,1.4-.1.63-.2,1.22-.29,1.84,0,.13,0,.3-.08.42a.35.35,0,0,1-.17.23c-.08.06-.15,0-.2,0s-.07-.07-.1-.1a.49.49,0,0,1-.07-.11c-.15-.22-.28-.45-.41-.68a2.14,2.14,0,0,1-.1-.22l-.07-.18a.3.3,0,0,1,0-.16,32.78,32.78,0,0,0-1.73-9.75c-.51-1.31-1.76-2.41-2.55-3.6l-.24-.37c-.84-1.3-1.69-2.57-2.57-3.83a3,3,0,0,1-.18-.25l-.13-.17-.08-.09a45.4,45.4,0,0,0-3.54-3.26,2,2,0,0,0-.55-.22,1.2,1.2,0,0,0-.47,0,1,1,0,0,0-.3.17.5.5,0,0,0-.18.17,3.39,3.39,0,0,0-.65,1,4.24,4.24,0,0,0-.25,2.4,94.78,94.78,0,0,0,4,9l.17.31c.79,1.17,1.63,2.87,3.82,5.81a12.1,12.1,0,0,0,2.34,2.28,5.72,5.72,0,0,0,2.2.94.34.34,0,0,1,.22.13c.46.83.93,1.65,1.41,2.47a.22.22,0,0,1,0,.16c-.16,1.63-.3,3.27-.36,4.91a1.53,1.53,0,0,0,0,.3c.06.5.15,1,.26,1.49a1,1,0,0,0,.06.18,1.39,1.39,0,0,1,.06.19c.21.74.4,1.47.62,2.21a4.7,4.7,0,0,1,.18.67.33.33,0,0,1-.1.28c-1.14,1.24-6,8.15-7.39,10.38a17.33,17.33,0,0,0-1.44,5.91c0,.07,0,.08,0,.16s0,.21,0,.3a.27.27,0,0,1-.15.18A.17.17,0,0,1,109,115c.61,1.18.17.38-1.21-2.5a.64.64,0,0,1-.06-.14,1,1,0,0,1-.09-.23,43.14,43.14,0,0,1-.75-4.82.62.62,0,0,0,0-.12,2.09,2.09,0,0,0,0-.25c0-.06,0-.09,0-.12.3-1.85.91-3.5.73-5.41a24.66,24.66,0,0,0-1.45-6.27,50,50,0,0,0-2.67-5.26c-.88-1.71-1.68-3.57-2.6-5.28S98.79,81,97.69,79.28l-.07-.09-.06-.06c-.27-.26-.53-.5-.81-.73a.7.7,0,0,0-.6-.14,3.82,3.82,0,0,0-.51.18l0,0-.06,0a3.5,3.5,0,0,0-.51.67,3.91,3.91,0,0,0-.2.57,8.26,8.26,0,0,0,0,4.49C95.72,87.53,96.87,90.68,97.94,93.9ZM123.16,147c.21,1.05.43,2.44.61,3.55a.34.34,0,0,1-.06.29c-.07.07,0,.06-.14,0a.33.33,0,0,1-.2-.19c-.6-1.08-1.31-2.26-2-3.31a123.28,123.28,0,0,1-6.58-12.11.84.84,0,0,1-.08-.4c0-.16,0-.41,0-.58.06-.4.11-.81.17-1.2,0-.13.12-.14.21-.17a8.09,8.09,0,0,0,1.44.1,12.22,12.22,0,0,0,2.9-.92,14.73,14.73,0,0,0,1.65-1.14c.07-.05.16-.11.23,0a.36.36,0,0,1,.12.29c0,.16,0,.36,0,.56a6.25,6.25,0,0,0,0,.64A77.31,77.31,0,0,0,123.16,147Zm-12.75-31.16c3.21-2,6.17-4.79,9.29-7a6.6,6.6,0,0,0,.81-.85,1.8,1.8,0,0,1,.19-.21c.07,0,.31-.25.38-.23a.15.15,0,0,1,.15.13c.12.69.2,1.31.29,2,.16,1.24.47,3.29.65,4.56,0,.16,0,.39.08.55s-.18.3-.19.34-.27.46-.34.6c-.73,1.36-1.7,3.1-2.31,4.36-1.07,2.21-1.85,4.07-2.8,6.2a1.14,1.14,0,0,0-.06.15l0,.11c-.71,1.56-1.41,3.06-2,4.66a1.16,1.16,0,0,0,0,.61.45.45,0,0,1,0,.08.22.22,0,0,1,0,.12.64.64,0,0,1-.06.18.28.28,0,0,1-.16.12c-.06,0,0,0-.11,0a.22.22,0,0,1-.14-.13c-.46-1.78-.72-3.53-1.21-5.32-.62-2.35-1.35-4.72-1.9-7.12l0-.11a20.54,20.54,0,0,1-.63-3.14c0-.14,0-.33,0-.46A.3.3,0,0,1,110.41,115.84Z"/><path class="cls-1" d="M146,178.53a.1.1,0,0,1,0-.2q16.28-6.33,25.51-17.52c4.78-5.8,7.92-11.22,9-18.26.19-1.2-.18-5.07-2.2-3.92a8.51,8.51,0,0,1-3.18,1.26,2.64,2.64,0,0,1-.35.1c-2,.51-4.25,1-5.76-.11s-3.75,3.23-6.38,4.66a7.69,7.69,0,0,1-2.32.82,2.42,2.42,0,0,0-2,2,37.41,37.41,0,0,1-9.6,19.94,30,30,0,0,1-7.85,6.32c-.21.12-.39.28-.6.4a34.08,34.08,0,0,1-5.74,2.37h0l-8.77,1.89-.71.11c-1.68.17-3.22.12-4.15,1.52-1.48,2.23-.22,5,1,5.45s2.78,0,4,.07c.65,0,1.29,0,1.93.06,1.21,0,9.15.93,9.76,1.1q15,2.91,24.61,13.19,13.11,14.06,13.11,37,0,20.85-10.55,32.18-7.92,8.5-22.13,10.63h0a25.26,25.26,0,0,1-3.6.41c-2.08.18-4.24.29-6.5.29-1.24,0-2.41,0-3.55-.06h0a48.43,48.43,0,0,1-6.44-.4h0a38.72,38.72,0,0,1-7.78-1.51q-6-2-8.29-6.19t-2.26-11.78V204.57a.8.8,0,0,0-.11-.48,8.07,8.07,0,0,1-2.29-4.79,1.17,1.17,0,0,0-1.54-1.06h0a4.63,4.63,0,0,1-1.68.28h-.1a4.33,4.33,0,0,1-2.35-.75,4.8,4.8,0,0,1-2-3.42A4.86,4.86,0,0,0,93.8,193c-.08-.16-.15-.31-.22-.47a6,6,0,0,0-2.21-2.66,9.44,9.44,0,0,1-1.64-1.43l-.24-.28-.17-.19a5.9,5.9,0,0,1-1.09-1.68,5,5,0,0,1,1.11-5.65h0c.05-.12.11-.23.16-.35a11.28,11.28,0,0,0,1.19-5.3c0-.17,0-.35,0-.53a8,8,0,0,0,0-1.07,5.34,5.34,0,0,1,.78-3.2,11,11,0,0,0,.63-1.23,4.09,4.09,0,0,1,2-2.07,4,4,0,0,1,1.14-.39l.21,0a5.71,5.71,0,0,1,2.62,0,13.82,13.82,0,0,1,1.43.45,1.24,1.24,0,0,0,.87,0c1.25-.45,3.78.67,3.78-.57v-.85a3.88,3.88,0,0,0-1.67-3.16,6.7,6.7,0,0,1-2.67-4,6.89,6.89,0,0,1,2.7-7.17h0a3.84,3.84,0,0,0,1.62-3.14v-6.3c0-.27.11-1-.77-1.11s-3.33-.54-5-.87l-.31-.07c-4.36-1.23-9.39-2.84-13.71-6.26a9.08,9.08,0,0,1-1.1-1,.64.64,0,0,0-1.11.44V260.38q0,9.06-2,13.29a11.13,11.13,0,0,1-7.23,5.89q-5.26,1.67-16.11,1.67c-.41,0-.61.6-.61,1.81s.2,1.81.61,1.81q9.63,0,15.36-.3l20.79-.3q7.23,0,13,.3c3.81.2,7.13.4,9.94.6q11.44.92,21.09.91c.61,0,1.2,0,1.8-.05.29,0,3.65-.17,4.2-.2a64.63,64.63,0,0,0,25.48-7.15,57,57,0,0,0,22.14-20.4,53.57,53.57,0,0,0,8.14-29q0-20.55-14.62-34.6T146,178.53Z"/></svg>