<svg id="Capa_1" data-name="Capa 1" xmlns="http://www.w3.org/2000/svg" viewBox="0 0 785.21 425.38"><defs><style>.cls-1{fill:#e5e2d9;}</style></defs><path class="cls-1" d="M165.91,112a9.28,9.28,0,0,1-1.26-.72,24.69,24.69,0,0,0-4.92-3.43,3.14,3.14,0,0,0-.5-.23,8.12,8.12,0,0,0-1.91-.6,8.31,8.31,0,0,0-3.1.37,6.38,6.38,0,0,0-.69.35c.11-.27.2-.51.33-.78s.3-.51.42-.81a14.84,14.84,0,0,0,1.1-2.47,11.34,11.34,0,0,0,0-6.17c-.29-1-.73-2-1.13-3a4.66,4.66,0,0,0-2.61-2.49,1.64,1.64,0,0,0-.47-.06c-.12,0-.15,0-.23,0s0-.08,0-.13a2.48,2.48,0,0,0-1.45-2,.74.74,0,0,0-.57,0,7.08,7.08,0,0,0-2.6.87A32,32,0,0,0,141.66,95a14,14,0,0,0-.84,1.18s0,.13-.07.1a5,5,0,0,0-2.22-1.65.79.79,0,0,0-.4,0A10.17,10.17,0,0,0,133,97.44a.41.41,0,0,0-.07.11s-.09.1-.12.11c-1.46.46-2.75.57-3.68,2a16.52,16.52,0,0,0-2.26,7.3,1.09,1.09,0,0,0,0,.18c0,.36,0,.8.08,1.14a18.29,18.29,0,0,0,1.06,4.52c.55,1.38,1.18,2.49,1.73,3.83a1.76,1.76,0,0,0,.09.2,14.49,14.49,0,0,0,2.56,3.59A77.34,77.34,0,0,0,117.73,133a216,216,0,0,1-3.1-33.57,1.54,1.54,0,0,0,.48-.12,5.43,5.43,0,0,0,2.91-3.8,3.09,3.09,0,0,0-1.56-3.63c-2.81-1.08-4.45-.2-6.18,2-.74,1-.28,1.93.13,3.08a4.38,4.38,0,0,0,2.08,2.13,250.46,250.46,0,0,0,2.75,33.27s0,.1,0,.15A97.65,97.65,0,0,1,114,144.89a206.41,206.41,0,0,0-7.27-26.1c0-.13.2-.16.21-.3.3-2.58.5-4.34-2-6a3.1,3.1,0,0,0-3.81.63,4.23,4.23,0,0,0-1.44,4.26,3.61,3.61,0,0,0,2.12,2.24,5.92,5.92,0,0,0,3.34.09,286,286,0,0,1,7.56,29.75c-2.24,6.77-4.74,13.91-7.25,20.41-.68,1.75-.91,2.33-1.58,3.87a68,68,0,0,0-.94-11.25c-.16-1-.33-1-.45-1.79,1.64-1.6,3-3.41,2.42-5.81-.39-1.76-1.82-2.36-3.52-2.54a4.49,4.49,0,0,0-4.27,2,4.59,4.59,0,0,0,.21,5.1c1,1.52,2.19,1.51,3.73,1.91.06.6.1.83.15,1.51s.15.89.19,1.92.12,3,.11,4.39c0,2.4-.08,7.49-.07,9.42a100,100,0,0,1-.73,12.76,63.26,63.26,0,0,1-1.28,7c-1.36,6.1-3.1,11.43-4.41,17.3-.52,2.31-.91,4.28-1.37,6.57a7.49,7.49,0,0,0-.13.76c-.6-3.4-1.09-6.4-1.72-9.88-1.47-8-2.51-16.43-3.34-24.61.27-2.94.63-5.64.69-8.63.06-2.41,0-4.69-.06-7.26-.06-4.31,0-9.25,0-13.57,0-1.8,0-3.06,0-4.78a63.61,63.61,0,0,0,4.55-8.13,80.23,80.23,0,0,0,3.46-10.29,24,24,0,0,0,.83-5.18,8,8,0,0,0-1.52-5c-.08-.12-.28-.11-.35-.12a.24.24,0,0,0-.13,0A36.23,36.23,0,0,0,87.6,132c0-.06,0-.14,0-.19-.15-1.08-.28-2.14-.46-3.21-.36-2-.8-4-1.23-6,.27-.5.61-1.13.85-1.61,1.23-2.41,2.35-4.78,3.45-7.22.06-.13.13-.32.18-.44a70.18,70.18,0,0,0,2.32-7.2,3.32,3.32,0,0,0,0-1.09,1.28,1.28,0,0,0-.43-.8,1,1,0,0,0-.58-.33,6.2,6.2,0,0,0-2.24-.3,11.89,11.89,0,0,0-3.92,1.18,33.61,33.61,0,0,0-3.6,2.4c-.26-.87-.55-1.87-.83-2.7-.11-.35-.22-.67-.3-.92s-.11-.37-.15-.54a12.23,12.23,0,0,1-.22-1.51c-.12-2.56-.06-5,0-7.56.46-.63.91-1.28,1.41-1.89a33.39,33.39,0,0,0,7.67-1.9,42.6,42.6,0,0,0,7.11-4.09,61.32,61.32,0,0,0,6.07-5c2.17-1.92,4.09-3.8,6-5.73,2.15-2.15,3.87-4.25,5.79-6.53a3,3,0,0,0,.19-.3,9.92,9.92,0,0,0,.84-1.81.21.21,0,0,0,0-.11,2.79,2.79,0,0,0-.77-1.17.71.71,0,0,0-.15-.12,3.76,3.76,0,0,0-1.17-.46,10,10,0,0,0-4.42.33,74.1,74.1,0,0,0-14.44,8.28,66.92,66.92,0,0,0-8,7.59,46.63,46.63,0,0,0-3.79,4.81,18.92,18.92,0,0,0-1.49,2.66c-.17.3-.21.63-.35.93,0-.22.07-.6.09-.78s0-.37.06-.48c.3-2.73.61-5.4,1-8.1.13-1.1.28-2.18.45-3.27a34.22,34.22,0,0,0,5.63-6.51,42.8,42.8,0,0,0,3.62-7.93,69.52,69.52,0,0,0,2.1-8.16c.65-3,1.11-5.76,1.54-8.53.5-3.14.65-5.8.89-8.87a2.11,2.11,0,0,0,0-.35,9.58,9.58,0,0,0-.36-2,.17.17,0,0,0-.06-.1,2.74,2.74,0,0,0-1.31-.5.57.57,0,0,0-.18,0,3.71,3.71,0,0,0-1.21.3A10.06,10.06,0,0,0,89.69,37a73.36,73.36,0,0,0-6.86,15.65,93.18,93.18,0,0,0-2.41,11.58,48.92,48.92,0,0,0-.53,6.5A14.34,14.34,0,0,0,80.17,74a7.14,7.14,0,0,0,1,2.45c-.35,2.11-.7,4.25-1,6.35-.26,1.71-.51,3.39-.78,5.08-.17,1.08-.34,2.14-.5,3.22,0,0-.08-.09-.11-.14-.22-.38-.42-.75-.62-1.14-.08-.18-.18-.36-.25-.55A33.33,33.33,0,0,0,76.16,76a28,28,0,0,0-3.51-5.7c-1.45-2.12-2.93-3.72-4.45-5.67a2.5,2.5,0,0,0-.27-.29,50.06,50.06,0,0,0-4.85-4.59,3.14,3.14,0,0,0-.89-.41,1.45,1.45,0,0,0-.83,0,1,1,0,0,0-.49.31,5.32,5.32,0,0,0-1.19,1.67A7.24,7.24,0,0,0,59,65a40.6,40.6,0,0,0,4.53,12.89,54.81,54.81,0,0,0,5.79,7.77,20.45,20.45,0,0,0,3.54,3.29,7.29,7.29,0,0,0,3.55,1.36c.72,1.22,1.35,2.44,2.08,3.64-.22,2.55-.35,5.09-.34,7.64a5,5,0,0,0,0,.58c.1.79.23,1.54.39,2.29a4.74,4.74,0,0,0,.17.57c.31,1.05.6,2.06.9,3.12.08.27.18.65.27.92-1.78,2.41-3.63,4.48-5.2,7.09-1.81,3-3.37,6.09-5,9.39a30,30,0,0,0-1.89,5,9.74,9.74,0,0,0,.1,4.91c0,.17-.07.35,0,.52-.51-1.08-1-2.18-1.43-3.3-.06-.14-.15-.37-.2-.51-.8-2.43-1.49-4.82-2.13-7.29a2.08,2.08,0,0,1-.14-.75,33.5,33.5,0,0,0,.71-7.78,42.3,42.3,0,0,0-1.73-8.7,63.52,63.52,0,0,0-3.1-7.7c-1.11-2.49-2.4-5.11-3.64-7.5-1.36-2.64-2.81-5-4.38-7.5l-.19-.24a11.44,11.44,0,0,0-1.48-1.39s-.09,0-.11,0a2.79,2.79,0,0,0-1.33.36.74.74,0,0,0-.16.12,3.7,3.7,0,0,0-.81,1A10,10,0,0,0,46.77,89a71,71,0,0,0,3.56,16.46,95.64,95.64,0,0,0,4.73,10.41,50.29,50.29,0,0,0,3.09,5.18,15.42,15.42,0,0,0,2.05,2.51,8.57,8.57,0,0,0,2.37,1.59c.73,2.55,1.45,5,2.3,7.6.34,1,.83,2.11,1.24,3.1a32,32,0,0,0-9.23-8.3,29.33,29.33,0,0,0-6.36-2.22c-2.46-.72-4.6-1-7-1.61l-.4-.07a52.26,52.26,0,0,0-6.62-.51,2.61,2.61,0,0,0-.94.24,1.37,1.37,0,0,0-.61.55,1,1,0,0,0-.18.55,5.24,5.24,0,0,0,.12,2,7.27,7.27,0,0,0,1.71,3.17,40.48,40.48,0,0,0,11.57,7.14c3.09,1.24,6.06,1.66,9.29,2.41a30.57,30.57,0,0,0,4.13.41,2.14,2.14,0,0,0,.56,0,11,11,0,0,0,4-1.22c.69.3,1.36.55,2,.92a106.57,106.57,0,0,1,5.25,12c1.24,3.51,2,6.25,3.09,9.62-.07-.1-.17-.13-.24-.2a37.27,37.27,0,0,0-11.76-8.87A35.55,35.55,0,0,0,57.23,150c-2.8-.61-5.21-.83-7.94-1.28l-.43,0a64.85,64.85,0,0,0-7.37-.2,3.79,3.79,0,0,0-1,.29,1.32,1.32,0,0,0-.62.59.88.88,0,0,0-.15.57,4.94,4.94,0,0,0,.36,2.08,7.92,7.92,0,0,0,2.23,3.1,51.12,51.12,0,0,0,13.54,6.57c3.53,1.09,6.93,1.4,10.56,2.05a25.81,25.81,0,0,0,3.12.24,13.08,13.08,0,0,0,2.07,0A11.56,11.56,0,0,0,76,162.54l1.22.53c3.17,8.11,6.29,16.19,8.88,24.53a211.88,211.88,0,0,0,3.11,25.53c1.06,6,2,11.29,3,17.17-.91,4.71-1.71,9.49-2.47,14.24-.51-1-.8-2.27-1.3-3.28-1.84-3.71-2.89-6.29-5.7-9.92-1.21-1.56-6.4-4.38-7.65-6.24a11.34,11.34,0,0,1-2.4-5.74A149.84,149.84,0,0,1,71,197.65a38.8,38.8,0,0,0-.31-4.71c.84-1.09,1.57-2.31,2.39-3.45,2.39-.3,4.56-.91,5.69-3.19.76-1.54.22-2.71-1-3.79a4.09,4.09,0,0,0-4.45-.64,4.74,4.74,0,0,0-2.63,4,5.81,5.81,0,0,0,.56,2.48c-.43.68-.88,1.35-1.29,2-.31-.78-.47-1.3-.83-2.11a58.36,58.36,0,0,0-6-10.42,2.5,2.5,0,0,0,.32-.63c.13-2.43-.3-4.35-2.58-5.5-1.45-.73-2.71-.09-3.82.94a3.36,3.36,0,0,0-1,3.84c.64,1.7,2.14,2.27,3.83,2.59.51.09,1-.12,1.5-.07a46.06,46.06,0,0,1,5.68,9.57,27.51,27.51,0,0,1,1.78,9c.1,1.43-.3,3.25-.16,4.77a50.32,50.32,0,0,0-9.13-2.17,13,13,0,0,0,.43-1.63.68.68,0,0,1,0-.14c.09-.73.23-1.36.28-2.12a8.7,8.7,0,0,0-.27-2.38c0-.19-.12-.45-.15-.56a1.43,1.43,0,0,0-.05-.17,9,9,0,0,0-2.54-3.35c-.74-.53-1.44-.33-2.27-.3,0,0,0,0-.05,0l-.06,0a5.69,5.69,0,0,0-3.23-.43.47.47,0,0,0-.2.1,2.93,2.93,0,0,0-.86,1.2c-.2-.12-.41-.29-.62-.39a19.86,19.86,0,0,0-3.27-1.22,4.49,4.49,0,0,0-1.51,0c-.12,0-.21.11-.29.14-.44.15-.46.87-.44,1.11s0,.12,0,.23,0,0-.05,0-.17.08-.24.13a2.48,2.48,0,0,0-.9,1.72,15.62,15.62,0,0,0,0,1.79,5.92,5.92,0,0,0,1.17,3.16,7.41,7.41,0,0,0,1,1c.12.13.25.21.34.3s.19.09.17.2-.14,0-.22,0a5.25,5.25,0,0,0-1.67.45,4.59,4.59,0,0,0-.86.68l-.21.21a13.24,13.24,0,0,0-1.77,2.66,3.33,3.33,0,0,1-.46.56,2.08,2.08,0,0,0-.44,2,2.35,2.35,0,0,0,.54.79,2.14,2.14,0,0,0,.36.4,9.26,9.26,0,0,0,5.31,1.74c-.06,1.13-.19,2.16-.19,3.33a2.23,2.23,0,0,0,.27.85,12.41,12.41,0,0,1,.8,2.66,2,2,0,0,0,.48,1c.21.23.36.18.58.24a.94.94,0,0,0,.56-.08,12.3,12.3,0,0,0,1.68-.68,4.25,4.25,0,0,0,.58-.35c.2-.13.47-.32.67-.43a3.91,3.91,0,0,1,.52-.24,2.78,2.78,0,0,0,.49-.22,6.25,6.25,0,0,0,1.58-1.94,1.08,1.08,0,0,1,.22-.29.26.26,0,0,1,.14-.09c.44-.31.83-.61,1.23-1l.09-.08s0,0,.06,0l.1,0a9.34,9.34,0,0,0,2.62,1,1.94,1.94,0,0,0,.24,0,7.38,7.38,0,0,0,2.63-.33,1.59,1.59,0,0,0,.86-.79,4.07,4.07,0,0,0-.05-3.16s-.13.15-.14.09.12-.06.11-.13,0,0-.07-.14-.18-.28-.28-.43a8.56,8.56,0,0,1-.84-1.72A15.45,15.45,0,0,0,59.84,202a40.92,40.92,0,0,1,8.79,2.67c.6,5,1.19,10.38,1.84,15.19.29,2.24,1,3.29,1.64,5.27-2-.45-4-.72-6-1,0,0,0-.06,0-.08-1-1.93-2.25-3.29-4.6-3.1-1.5.12-2.24,1.21-2.61,2.59A3.11,3.11,0,0,0,59.92,227a4.15,4.15,0,0,0,4.19.2,5.67,5.67,0,0,0,1.42-1.11c2.93.47,5.73.9,8.73,1.5,1.37,1.39,5.76,3.78,6.62,4.9a38.79,38.79,0,0,1,5.5,9.59c1,2.41,1.64,5.23,2.53,7.76-.51,4.16-1.3,8.69-1.62,12.74-1.23,15.4-2.17,29.45-2.36,45.2a208.56,208.56,0,0,0,.87,23.56A226.92,226.92,0,0,0,90,354.94c0,.13.15.34.33.33s.42-.19.59-.22.09-.35.08-.41c-2.32-15.14-4.22-31.63-4-46.58.24-15.86,1.42-29.77,2.88-45.28.77-8.13,2.37-16.71,3.52-24.93.08.06.06.18.08.27,1.29,7.87,2.65,15.74,4,23.6.46,2.69.89,5.4,1.28,8.09.23,1.58.49,3.16.67,4.72.37,3.11.66,6.31.93,9.38.1,1.18.24,2.43.28,3.48.31,9,.4,17.67.31,26.68,0,1.9-.09,4.35-.17,6.31s-.23,4.43-.33,6.2c-.2,3.53-.43,6.69-.68,10-.09,1.15-.15,2.31-.25,3.29-1.85,17.41-4.28,34.57-7.47,51.73a.24.24,0,0,0,.06.23.3.3,0,0,0,.22.12h.36c.1,0,0,0,.06,0a.37.37,0,0,0,.29-.25c3.46-17.1,6.57-34,8.32-51.46a455.56,455.56,0,0,0,1.84-52.79c0-1.19-.2-2.27-.29-3.42-.25-3.28-.54-6.55-.91-9.82-.17-1.51-.4-3-.61-4.5-.39-2.8-.81-5.66-1.28-8.43-1-5.64-1.89-11.38-2.8-17-.46-2.84-.91-5.49-1.37-8.23-.36-2.11-.71-4-1-6.06.27-1.19.58-2.78.81-3.92.71-3.45,1.32-6.63,2.11-10,1.22-5.25,2.74-10.47,3.95-15.74.59-2.57,1.11-5.27,1.47-7.86a101.11,101.11,0,0,0,.82-12.76c.13-.33.32-.76.44-1.07.61-1.48,1.2-2.9,1.79-4.37,3.34-3.59,6.61-7.24,10.29-10.48,1.07.77,2.09,1.62,3.48,1.61a4.64,4.64,0,0,0,3.48-1.54,6.23,6.23,0,0,0,1-5.9c-.53-1.9-1.87-3.67-3.73-3.56-4.17.24-4.54,3.42-5.24,6.82-.07.36.13.62.13,1a98.83,98.83,0,0,0-7.88,7.71c1.13-3,2.13-5.7,3.29-8.75.68-1.78,1.48-3.81,2.18-5.75.6-1.66,1.29-3.58,1.79-5.35.13-.46.38-1.46.45-1.83.77-3.94,1.48-7.65,2.19-11.51a80.18,80.18,0,0,1,14.13-14,21.49,21.49,0,0,0-.47,6.79,14.08,14.08,0,0,1-.18,3.23c0,.29-.12.63-.18,1a.37.37,0,0,0-.06.26,7.42,7.42,0,0,0,2,5.12,3.2,3.2,0,0,0,1.94.83,13.79,13.79,0,0,0,4.64-1,2.65,2.65,0,0,0,.42-.25,15.38,15.38,0,0,0,3.38-2.79c.49-.51.25-.35.47-.53l.2-.17c.09-.09,0-.05.1-.07s.12,0,.19,0a1.29,1.29,0,0,1,.21.07,25.82,25.82,0,0,0,2.68.82c.07,0,.13,0,.2,0a2.55,2.55,0,0,1,.74.43,12.49,12.49,0,0,0,4,2.4,4.82,4.82,0,0,0,1,.08c.35,0,.68,0,1.09.1s1,.23,1.44.33a8.55,8.55,0,0,0,1.22.26,19.57,19.57,0,0,0,3.34.11,2.19,2.19,0,0,0,1.73-.8,2.6,2.6,0,0,0,.29-2,27.64,27.64,0,0,1-.35-5.25,4.09,4.09,0,0,0-.1-1.59c-.81-2.1-1.76-3.85-2.68-5.83a16.7,16.7,0,0,0,8.09-6.51,3.51,3.51,0,0,0,.31-.8,5.15,5.15,0,0,0,.47-1.84A3.68,3.68,0,0,0,165.91,112ZM83.68,89.31a19.23,19.23,0,0,1,1.2-2.47A43.82,43.82,0,0,1,88,82.38a73.86,73.86,0,0,1,7.47-7.55,11.14,11.14,0,0,1,1-.72,63.44,63.44,0,0,1,5.38-3.46,44,44,0,0,1,7.18-3,11.25,11.25,0,0,1,2.7-.31c.44-.06.59.11.86.15s.2,0,.32.14-.18.3-.24.38l-.15.21c-1.82,2-3.68,3.85-5.64,5.66-.86.79-1.74,1.6-2.61,2.36-2.92,2.52-5.92,5.3-8.9,7.61A47.28,47.28,0,0,1,88.92,88a31.59,31.59,0,0,1-5.44,2A4.83,4.83,0,0,1,83.68,89.31Zm-.81-24.65c.43-3.67,1.17-7.74,2-11.48.06-.3.27-.93.37-1.23.65-2.06,1.45-4.58,2.23-6.44a40.89,40.89,0,0,1,3.76-6.95C92.14,37.18,92.91,37,94,36c0,0,0,0,.07.07a1.63,1.63,0,0,1,0,.44,2.62,2.62,0,0,0,0,.27c-.35,2.72-.79,5.46-1.31,8.12-.24,1.24-.48,2.47-.74,3.67-.9,4.14-1.77,8.54-2.88,12.52A57.05,57.05,0,0,1,86.16,69,37.57,37.57,0,0,1,83,74.18a3.87,3.87,0,0,1-.15-.63,25.59,25.59,0,0,1-.26-2.91A59.75,59.75,0,0,1,82.87,64.66ZM80.76,90.92s0,.12,0,.13,0,.09,0,0A.22.22,0,0,1,80.76,90.92Zm-4.65-3.58a8.9,8.9,0,0,1-2.22-1,21.58,21.58,0,0,1-3.2-2.67,73.58,73.58,0,0,1-5.25-6.44,42.21,42.21,0,0,1-3.69-12,6.84,6.84,0,0,1,.59-2.68c.06-.26.27-.36.36-.59a56.25,56.25,0,0,1,3.75,4.26l.15.19c.55.77,1.16,1.53,1.7,2.29a90.22,90.22,0,0,1,5.32,7.95A24.15,24.15,0,0,1,75.7,82.3,24.27,24.27,0,0,1,76.11,87.34Zm-13.53,34.2c-.2-.17-.29-.16-.49-.38a21.85,21.85,0,0,1-1.81-2,48.41,48.41,0,0,1-3.11-4.5A108,108,0,0,1,52.24,105c-.12-.26-.31-.85-.4-1.13-.66-2-1.47-4.43-1.9-6.38A39.83,39.83,0,0,1,49,89.62c0-1.71.49-2.41.78-3.9,0-.09,0-.07.12-.06s.18.22.22.29.11.15.14.21c1.29,2.3,2.49,4.61,3.62,7,.51,1.07,1,2.2,1.52,3.29,1.63,3.64,3.45,7.45,4.8,11.13a48.58,48.58,0,0,1,2.1,7.84A33.71,33.71,0,0,1,62.58,121.54Zm-1,15.46a23.59,23.59,0,0,1-4.18-.08,74,74,0,0,1-8.13-1.7,41.23,41.23,0,0,1-10.34-6.95,7,7,0,0,1-1.23-2.45c-.11-.24,0-.44-.08-.69a55.44,55.44,0,0,1,5.57,1l.23.05c.91.25,1.86.46,2.76.71a94,94,0,0,1,9.14,2.83,23,23,0,0,1,5.13,3,22.4,22.4,0,0,1,3.49,3.72A8.7,8.7,0,0,1,61.56,137Zm4.93-.29a2.05,2.05,0,0,1-.08-.19,1.54,1.54,0,0,1,.1.19S66.51,136.74,66.49,136.71Zm4.32,24.57a29.32,29.32,0,0,1-4.71.07c-3-.25-6.25-.82-9.25-1.38a50.8,50.8,0,0,1-12.23-6.48c-.88-.66-1.09-1.56-1.64-2.41-.15-.23-.06-.43-.16-.66,2.12.13,4.21.37,6.32.69l.27,0c1.06.21,2.12.37,3.18.59,3.47.73,7,1.36,10.42,2.4a28.53,28.53,0,0,1,6.06,2.8,28.68,28.68,0,0,1,4.31,3.63A11.33,11.33,0,0,1,70.81,161.28ZM87,138a30.15,30.15,0,0,1,3.64-5.61,26.06,26.06,0,0,1,4.18-3.74,10.32,10.32,0,0,1,.41,2.63,27.89,27.89,0,0,1-.49,4.68,67.73,67.73,0,0,1-2.84,9.13c-1.25,3.36-5.25,8-7,9.91-1.08,1.19-1.24,1.2-1.3,1.25a9.5,9.5,0,0,1-2.86,1.3c-.3.1-.44,0-.72.06.48-2.12,1.07-4.18,1.74-6.24,0-.07.07-.19.09-.27.35-1,.71-1.95,1.06-2.93,0,0,0-.09,0-.12C84.31,144.68,85.49,141.18,87,138Zm-16.25-7.39a30.66,30.66,0,0,1,1.44-4.6c1.18-2.77,2.72-5.78,4.15-8.51a51.12,51.12,0,0,1,10.18-9.86,8.65,8.65,0,0,1,2.84-.85c.09,0,.16,0,.3,0a3.51,3.51,0,0,1,.62.08c-.72,2.05-1.57,4-2.49,6l-.13.25c-.51,1-1,1.94-1.49,2.91a82.23,82.23,0,0,1-5.59,9.51,27.51,27.51,0,0,1-4.85,5,27.33,27.33,0,0,1-5.13,2.91A11.37,11.37,0,0,1,70.78,130.58ZM78,159.68c0,.07.06.16.07.22a.12.12,0,0,1,0,.12c-.91-2.75-1.88-5.8-2.86-8.46-1.31-3.6-2.63-6.78-4.14-10.28l-.2-.36a19.53,19.53,0,0,0-1.08-1.83.82.82,0,0,1-.12-.2c-.07-.95-.11-1.89-.17-2.83a40.08,40.08,0,0,0,13-8.35,15.76,15.76,0,0,0,1.37-1.8c.21,1,.38,2,.55,3.07.32,2,.61,3.89.87,5.89a.81.81,0,0,1,0,.52c-.08.21-.31.54-.44.8A73.57,73.57,0,0,0,82,143.13c-1,2.69-1.68,5.05-2.53,7.69,0,.14-.08.31-.11.43a63.54,63.54,0,0,0-1.42,7.35A4,4,0,0,0,78,159.68Zm8.84,22.16c-2.31-6.31-5.07-12.44-7.65-18.64.09-.82.19-1.65.26-2.46a7.15,7.15,0,0,0,1.78-.1,12.7,12.7,0,0,0,3.57-1.7,16.47,16.47,0,0,0,2-1.84c0,.7.06,1.11.06,1.87C87,166.54,87.24,174.22,86.88,181.84ZM51.23,192.15c.16-.46-.06.21.08-.22a11.39,11.39,0,0,0,.37-1.42.58.58,0,0,1,.2-.3.21.21,0,0,1,.13-.08,1.47,1.47,0,0,1,.78,0c.27.07.48.1.75.18.49.14,1,.31,1.48.5a1.53,1.53,0,0,1,.38.12c.92.7,1.74.79,2.28,2a9.16,9.16,0,0,1,.43,4.19,3.43,3.43,0,0,1-.06.7,7.06,7.06,0,0,1-2,3.38.72.72,0,0,1-.32.11,16.29,16.29,0,0,1-2.54.49,5.67,5.67,0,0,1-.57-.79s0-.06,0-.12a2.62,2.62,0,0,1,0-.27c0-.07.08-.1.09-.17a4.24,4.24,0,0,0-.15-1.4,6.88,6.88,0,0,1-.26-1.77,4.25,4.25,0,0,0-.31-1.56c-.13-.31-.37-.56-.56-.9a2.66,2.66,0,0,1-.55-1.1A4.34,4.34,0,0,1,51.23,192.15ZM44.92,196a3.72,3.72,0,0,1-.67-2,1.86,1.86,0,0,1,0-.36c0-.15.06-.51.05-.69s0-.42,0-.56,0-.08,0-.2-.05-.18,0-.33a1.82,1.82,0,0,1,.4-.44A2,2,0,0,0,45.5,190s-.07-.05,0-.07a4.12,4.12,0,0,1,.6,0,4,4,0,0,1,1.06.31,7.1,7.1,0,0,0,.73.28,4.56,4.56,0,0,1,1.32.55c.25.15.14.16.26.21s.2.16.19.21c-.08.64-.35,1.41-.41,2a2.61,2.61,0,0,0,.3,1.31c.16.45.38.74.55,1.16s.32.86.45,1.29A12.22,12.22,0,0,0,49.11,196a1.68,1.68,0,0,1-.59-.56.74.74,0,0,0-.68-.51c-.32,0-.42.13-.61.27s-.17.27-.18.46a.44.44,0,0,0,.2.39.6.6,0,0,0,.45.07,1,1,0,0,1,.41.12.49.49,0,0,1,.16.1,12.26,12.26,0,0,1,2.38,2.17c.56.55.24.8.45,1.17a.3.3,0,0,1-.2.49c-.5-.07-.79-.55-1.08-.79a6.14,6.14,0,0,1-.68-.63c-.2-.2-.17-.24-.28-.48s-.19-.47-.5-.57c0,0,0-.05-.16,0a1.3,1.3,0,0,0-.56.38.94.94,0,0,0-.11.67c.06.21.22.27.38.33a4.75,4.75,0,0,1,1.5,1c-.06.05-.21-.1-.26-.08-.45.14-1.39-.8-1.5-.93-.43-.55-.79-1-1.12-1.39A17.62,17.62,0,0,1,44.92,196Zm.94,11a11.66,11.66,0,0,1-3-.52,1.2,1.2,0,0,1-.39-.35c-.12-.15-.36-.41-.54-.59a3.79,3.79,0,0,1-.55-.65,1,1,0,0,1-.16-.62c0-.21.21-.25.3-.35a2.26,2.26,0,0,1,.26-.23.88.88,0,0,0,.1-.1,4.84,4.84,0,0,0,.45-.92c.07-.18.15-.34.17-.41a2.89,2.89,0,0,1,.69-1,2.27,2.27,0,0,1,.25-.23c.26-.23.48-.47.69-.65a1.9,1.9,0,0,1,.47-.33,1.86,1.86,0,0,1,.89-.22,2.35,2.35,0,0,1,.89.2l.11.08a13.57,13.57,0,0,0,1.36.86c.14.08.26.11.4.18a15.23,15.23,0,0,0-2.32.32s-.06,0-.1,0a.22.22,0,0,0-.12,0c-.09,0-.27-.1-.41,0s-.28.15-.36.35a.74.74,0,0,0,.1.69.59.59,0,0,0,.45.2c.19,0,.3-.11.46-.19s.21-.17.41-.21a10.73,10.73,0,0,1,3.44,0c.14,0,.38.19.31.2a7.5,7.5,0,0,1-2.22,0,2.28,2.28,0,0,0-.54,0,.73.73,0,0,0-.56.46.66.66,0,0,0,.21.63.54.54,0,0,0,.45.11c.16,0,.23-.14.32-.22a.59.59,0,0,1,.29-.1l.18,0a5.37,5.37,0,0,1,1.55.15.22.22,0,0,1,.11.2c0,.09.13.3,0,.36s-.3,0-.46-.09a4.72,4.72,0,0,0-1.33-.17,2.68,2.68,0,0,0-1,.3,5.23,5.23,0,0,1-.91.29c-.24.05-.26,0-.41.12s-.17.18-.13.41.13.53.44.58a.75.75,0,0,0,.76-.2,1.89,1.89,0,0,1,1-.65,3.85,3.85,0,0,1,1.46.15s.09,0,.07,0c-.42.26-1,.54-1.39.76A9.41,9.41,0,0,0,45.86,207Zm8.91,3.13c0,.09-.12.13-.16.18-.26.29-.53.56-.81.82a3.7,3.7,0,0,0-.28.28c-.07.09-.07.06-.13.17a1.82,1.82,0,0,0-.19.42,2.77,2.77,0,0,1-.34.59l-.1.09a1.54,1.54,0,0,0-.13.12c-.05,0,0,.05-.09.11a2.43,2.43,0,0,1-.29.19l-.22.12-.5.27-.53.28c-.39.22-.75.45-1.12.68a1.45,1.45,0,0,1-.25.09l-.25.08-.33.14a.78.78,0,0,0-.18.11c-.07,0-.18,0-.24.08s-.12-.07-.12-.08a12.53,12.53,0,0,1-.49-1.65c-.1-.42-.17-.66-.25-.95s-.13-.21-.19-.48-.11-.09-.16-.56A8.37,8.37,0,0,1,47.5,209s0-.27,0-.38a3.41,3.41,0,0,1,.1-.46c0-.1,0-.12.06-.18s-.07.11,0-.08,0-.07.19-.42.78-1.18,1.44-1.25c.15,0,.62-.23.76-.26a1.73,1.73,0,0,0,.2,0,3,3,0,0,0,.43-.09l.18-.08.16-.08.27-.1c.05,0,.15-.07.13,0s-.13.06-.19.12a3.9,3.9,0,0,1-1.48.69,1.54,1.54,0,0,0-.74.23c-.2.12-.06.07-.16.18a.5.5,0,0,0-.08.41.38.38,0,0,0,.23.31.93.93,0,0,0,.9-.07,9.43,9.43,0,0,1,1-.55s.16-.17.17,0-.17.23-.11.38,0,.29.2.35a.77.77,0,0,0,.63,0,1.58,1.58,0,0,0,.74-.67,2.4,2.4,0,0,1,.27-.46c.1-.12.06-.36.27-.31s.3.6.32.72a5.72,5.72,0,0,0,1.07,2.62A1,1,0,0,1,54.77,210.14Zm6.68-.83c.07.16-.07.16-.05.28s0,0,0,.1a.88.88,0,0,1-.26.36.79.79,0,0,1-.16.08,1.44,1.44,0,0,1-.22.07,4.73,4.73,0,0,1-.49.16,6.31,6.31,0,0,1-2.25.14,4.17,4.17,0,0,1-1-.4l-.41-.2c-.23-.11-.49-.25-.74-.4a.34.34,0,0,1-.13-.12,2.51,2.51,0,0,1-.47-.56c-.1-.21-.22-.53-.3-.76-.22-.6-.32-1.13-.52-1.76a3.59,3.59,0,0,0-.49-1.1c-.28-.44-.78-1.16-1.14-1.63.26-.28,0-.47.51-.58s1.12-.07,1.71-.2l1.13-.3a8.78,8.78,0,0,1,1.39-.29s.13,0,.15,0c.29-.07.67.39.77.53a4.75,4.75,0,0,1,.78,2.28c0,.84,1,2,1.14,2.31A13.12,13.12,0,0,1,61.45,209.31Zm87.76-106.92a1.76,1.76,0,0,0-1-.15s-.06,0-.08,0a1.48,1.48,0,0,0-.75,1.23,3.71,3.71,0,0,1-.59,1.41c-.71,1.07-1.37,2.4-2,3.55-.07-.73-.09-2.06-.1-2.69,0-.92.16-1.69.15-2.4a6.05,6.05,0,0,0-.34-2.68,22.38,22.38,0,0,0-2-3.18,2.47,2.47,0,0,1,.19-.5c.06-.12,0-.15.1-.25a11.24,11.24,0,0,1,2.09-2.29c.21-.18.64-.6,1-.88a9.12,9.12,0,0,1,1.79-1.38,6,6,0,0,1,1.34-.4s0,0,0,0a.37.37,0,0,0,0,.23,3.5,3.5,0,0,0,2.17,2,2.4,2.4,0,0,1,1,.57c.25.3.2.53.33.87s.18.67.33,1.07.4.92.59,1.35a1.65,1.65,0,0,1,.23.46,8.31,8.31,0,0,1,.07,4,36.77,36.77,0,0,1-1.67,3.87c-.32.76-.56,1.79-.91,3-.11.37-1,2.58-1.93,2.76-.2,0-.45.46-.65.51a9.17,9.17,0,0,1,2-3.1c.17-.19.4-.36.32-.72a1.45,1.45,0,0,0-.65-1,1.26,1.26,0,0,0-1.23-.1c-.41.23-.4.74-.37,1.12a1.84,1.84,0,0,1-.08.91c-.24.64-.45,1-.75,1.69s-.78,1.57-1.07,2.33c-.48-.51-.68.27-1-.67s-.7-1.17-.2-2.59a23.24,23.24,0,0,1,2.55-5.42,1.86,1.86,0,0,1,.11-.19,3.53,3.53,0,0,1,.72-.61h0c.25-.1.51-.15.65-.39a.81.81,0,0,0,.09-.74A1.1,1.1,0,0,0,149.21,102.39Zm-19.28,2.9c.17-2.43,1.55-3.15,2.69-5,.15-.22.43-.31.64-.5.66-.61,1.44-1.27,2.13-1.81.36-.28.76-.52,1.07-.75a3.86,3.86,0,0,1,1.47-.68.28.28,0,0,1,.18,0,1.29,1.29,0,0,1,.72.47c.55.81,1.1,1.66,1.73,2.42a9.12,9.12,0,0,1,1.72,2.65,4.76,4.76,0,0,1-.19,2.34c-.1.72-.33,1.33-.37,1.91a6.93,6.93,0,0,0,.41,2.73,14.29,14.29,0,0,1,.77,3.56,6.55,6.55,0,0,0,.63,2.37c.05.12.18.12.25.24a3.06,3.06,0,0,1,.21.51c0,.1.09.18.08.23a13.28,13.28,0,0,1-.51,1.9,44.38,44.38,0,0,1-4.87.93,1.87,1.87,0,0,1-.67,0,10.91,10.91,0,0,1-5.65-4.65,6.66,6.66,0,0,1-.53-1.26C130.87,110.62,129.76,107.73,129.93,105.29Zm14.65,26.07a6.48,6.48,0,0,1-.59,1.51s-.07.07-.09.1a13.26,13.26,0,0,1-1,1.07c-.24.24-.24.26-.43.43a8.48,8.48,0,0,1-1.74,1.48,13.1,13.1,0,0,1-4.2,1.18c-.36.05-.69,0-1.05,0h-.26a.66.66,0,0,1-.2,0,2.88,2.88,0,0,1-1-.66s0,0-.06-.14-.28-.12-.25-.45a16.94,16.94,0,0,1,.62-4c0-.12,1.31-3.2.39-4.28-.61-.72-.56-3.17-.19-4.33.13-.4.55-1.45,1.13-1.67a2.51,2.51,0,0,1,.28-.13,28.84,28.84,0,0,1,2.89-.55c.69-.09,1.51-.19,2.13-.32a27.25,27.25,0,0,0,3.33-1,4.29,4.29,0,0,1,1.09,1c-.31,1.24-.72,2.66-1,3.86a6.47,6.47,0,0,0-.07,2c.08,1.17.25,2.15.25,3.34A9.12,9.12,0,0,1,144.58,131.36Zm15.1-.83c.22.86,0,.57.09,1.08s-.08.4,0,1,.08,1,.19,1.78a20.78,20.78,0,0,1,.26,3.18c0,.1,0,.32-.21.36a2.16,2.16,0,0,1-.57,0l-.42-.07a4.4,4.4,0,0,0-.64,0h-.53a2.41,2.41,0,0,1-.59,0c-.75-.15-1.49-.32-2.29-.46-.33-.06-.75-.12-1.13-.17l-1.16-.18c-.08,0-.2,0-.34,0a4.37,4.37,0,0,1-.62-.17c-.12-.06-.13-.09-.22-.13a1.22,1.22,0,0,0-.24-.1c-.09,0,0,.05-.06,0l-.23-.14a8,8,0,0,1-1-.82,4.6,4.6,0,0,0-.62-.58.93.93,0,0,0-.3-.2c-.19-.1-.48-.2-.7-.3a20.63,20.63,0,0,1-1.9-.91c-.11-.05-.35-.05-.39-.2a2.2,2.2,0,0,1,0-1.67,10.21,10.21,0,0,0,.13-5.08c-.05-.24-.2-1.4.06-1.73a4.91,4.91,0,0,1,.82.58c.26.18.59.49.83.66a3.26,3.26,0,0,0,1.79.67.94.94,0,0,0,.82-.34c.19-.24.22-.41,0-.65a2.94,2.94,0,0,0-1.88-.92,3.36,3.36,0,0,1-1.09-.45,13.71,13.71,0,0,0,2.81.6c.83.09,1.5.24,2.21.36a1.73,1.73,0,0,0,1.52-.38c.17-.11.17-.4.17-.59a.86.86,0,0,0-.3-.56c-.11-.09-.09-.15-.18-.17a3.35,3.35,0,0,0-1.51,0,8.32,8.32,0,0,1-3.08-.23,4.05,4.05,0,0,0-.62-.1c-.15,0-.14,0-.22,0s0,0,.05-.12a.58.58,0,0,1,.41-.12c.17,0,.53,0,.69,0a2.87,2.87,0,0,1,.36,0l.23,0a7,7,0,0,0,1-.14h.15c.37-.09,1.29,0,1.56-.06,1.23-.36,2.83.81,3.41,1.25s.34.36.57.55.05.07.14.16a1,1,0,0,1,.15.18,7.86,7.86,0,0,1,.66,1c0,.09.18.47.24.56A14.2,14.2,0,0,1,159.68,130.53Zm6.24-15.29a8.07,8.07,0,0,1-.56,1.7c-.19.49-.45,1-.55,1.43a2.2,2.2,0,0,1-.47.91,21.41,21.41,0,0,1-5,3,15.79,15.79,0,0,0-4.68-1.24c-.92-.11-2.15-.26-3.12-.43a2.68,2.68,0,0,1,.3-.28,7.24,7.24,0,0,1,2.62-1.34,4.27,4.27,0,0,1,2.3.55,1,1,0,0,0,1.12-.21,1.32,1.32,0,0,0,.29-1.16.73.73,0,0,0-.41-.56c-.21-.14-.3,0-.51,0a8.12,8.12,0,0,1-1.9.14,5.42,5.42,0,0,0-1.76.09,10,10,0,0,0-2.27,1.24c-.33.2-.46.52-.9.52-.17,0-.31-.5-.29-.69s0-.49.13-.62a9.31,9.31,0,0,1,2.56-1.33,3,3,0,0,1,.32-.08,1.09,1.09,0,0,1,.62,0c.2.09.36.26.62.17s.44-.11.6-.42a1.16,1.16,0,0,0-.07-1.11,1.13,1.13,0,0,0-1.11-.4,3.81,3.81,0,0,0-.86.41,27.73,27.73,0,0,1-3.76,1.63c-.17.06-.19.13-.19-.12a.83.83,0,0,1,.37-.69,18.07,18.07,0,0,1,6-2.44.09.09,0,0,1,.07,0,2.69,2.69,0,0,1,.73.14,1.27,1.27,0,0,0,.77,0,.87.87,0,0,0,.51-.52,1.2,1.2,0,0,0-.26-1.21.94.94,0,0,0-.78-.34c-.32,0-.44.17-.7.31,0,0,0,.06-.09.12a.58.58,0,0,1-.29.18,19.87,19.87,0,0,0-4.63,1.26c.47-.48.83-.73,1.3-1.28a17.54,17.54,0,0,0,1.46-2.14l.14-.23a5.46,5.46,0,0,1,3.29-1.25,1.65,1.65,0,0,1,.72.2c.59.22,1.1.46,1.71.69a1.78,1.78,0,0,1,.35.12,9.93,9.93,0,0,1,2.34,1.47c.13.12.33.35.51.54a12.07,12.07,0,0,0,1.52,1.4.66.66,0,0,0,.21.1,4.89,4.89,0,0,1,.59.21,1.75,1.75,0,0,1,.79.38A1.93,1.93,0,0,1,165.92,115.24Z"/><path class="cls-1" d="M197.52,214.11a22.78,22.78,0,0,1,7,16.91,26.55,26.55,0,0,1-3.9,14.18,27.59,27.59,0,0,1-10.61,10,31.35,31.35,0,0,1-15.1,3.62q-4.62,0-10.11-.45c-1.34-.1-2.93-.19-4.76-.29s-3.9-.15-6.21-.15l-10,.15q-2.75.15-7.36.15c-.2,0-.29-.3-.29-.89s.09-.89.29-.89a27.17,27.17,0,0,0,7.72-.81,5.36,5.36,0,0,0,3.47-2.88,16.61,16.61,0,0,0,.94-6.5V177.85a17.94,17.94,0,0,0-.87-6.5,5.06,5.06,0,0,0-3.32-2.88,26.43,26.43,0,0,0-7.65-.81c-.29,0-.44-.3-.44-.89s.15-.88.44-.88l7.07.14q6.07.3,10,.3c1.73,0,3.34-.05,4.84-.15s2.76-.19,3.82-.29q4.48-.45,8.52-.45,12.42,0,18.63,5.32t6.22,14.18a19.58,19.58,0,0,1-4.48,12.63A29.3,29.3,0,0,1,179,206.21Q190.51,207.25,197.52,214.11Zm-34.81-45.64a4.63,4.63,0,0,0-2.67,2.88,19.81,19.81,0,0,0-.87,6.8v28.06l6.5.15q10,0,14.8-5.62T185.31,186q0-8.26-4.19-13.22t-13-4.94A16.74,16.74,0,0,0,162.71,168.47Zm25.49,82q5.06-5.53,5.06-15.73,0-11.22-6.29-18.09t-17.4-7a103.22,103.22,0,0,0-10.4.3v36.33a12.45,12.45,0,0,0,1.09,5.76,6.5,6.5,0,0,0,4,3,28.58,28.58,0,0,0,8.52,1Q183.15,256,188.2,250.44Z"/><path class="cls-1" d="M237.77,245.64a17,17,0,0,0,.79,6.06,4.42,4.42,0,0,0,3,2.58,27.25,27.25,0,0,0,7.15.67h13.87q8.65,0,14.22-5.39t7.3-14.7c0-.29.26-.42.79-.37s.8.22.8.52a209,209,0,0,0-1.3,21,2.63,2.63,0,0,1-.44,1.7,2.19,2.19,0,0,1-1.73.52h-67c-.2,0-.29-.3-.29-.89s.09-.89.29-.89a29.84,29.84,0,0,0,7.8-.73,4.91,4.91,0,0,0,3.32-2.88,18.63,18.63,0,0,0,.86-6.58V177.85a18,18,0,0,0-.86-6.5,5.11,5.11,0,0,0-3.32-2.88,27.14,27.14,0,0,0-7.8-.81c-.2,0-.29-.3-.29-.89s.09-.88.29-.88l7.22.14q6.06.3,10,.3c2.8,0,6.21-.1,10.26-.3l7.07-.14c.2,0,.29.29.29.88s-.09.89-.29.89a27.17,27.17,0,0,0-7.72.81,5.09,5.09,0,0,0-3.4,3,18.76,18.76,0,0,0-.86,6.57Z"/><path class="cls-1" d="M317,253.54a43.57,43.57,0,0,1-16.17-17.42,51.32,51.32,0,0,1-5.71-24q0-15.2,7.51-26.06a47.27,47.27,0,0,1,19.28-16.32A56.46,56.46,0,0,1,346,164.26,43.81,43.81,0,0,1,386,188.19a49.22,49.22,0,0,1,5.56,22.89,46.08,46.08,0,0,1-6.93,24.67,50.27,50.27,0,0,1-18.56,17.72,50.82,50.82,0,0,1-25.2,6.5A44.72,44.72,0,0,1,317,253.54Zm46.07-1.69a33.13,33.13,0,0,0,12-14.26q4.4-9.37,4.4-22.37a59.22,59.22,0,0,0-4.84-24.52,39,39,0,0,0-13.79-16.84A36.27,36.27,0,0,0,340,167.81q-15.46,0-24.12,10.41T307.24,207a63.11,63.11,0,0,0,4.91,25.25,43.23,43.23,0,0,0,13.72,18A32.72,32.72,0,0,0,346,256.72,31,31,0,0,0,363.06,251.85Z"/><path class="cls-1" d="M417.91,192.62a27.77,27.77,0,0,0,6.65,7.24q3.9,3,11,7.23,7.37,4.59,11.56,7.83a29.91,29.91,0,0,1,7.15,8.12,21.81,21.81,0,0,1,3,11.53,23.68,23.68,0,0,1-13.87,22.08,36.15,36.15,0,0,1-16,3.32,40.36,40.36,0,0,1-20.79-5.32,2.57,2.57,0,0,1-1-1,6.06,6.06,0,0,1-.43-1.77l-1.59-20.68c-.09-.39.12-.64.65-.74s.84,0,.94.44a49.9,49.9,0,0,0,9.1,18.69,20,20,0,0,0,16.46,7.75,18.29,18.29,0,0,0,11.85-3.84q4.75-3.84,4.76-12.55a21.76,21.76,0,0,0-2.89-11.45,30.46,30.46,0,0,0-7-8.12,104.33,104.33,0,0,0-11.19-7.61q-7.08-4.58-11-7.61a26.62,26.62,0,0,1-6.64-7.68,21.23,21.23,0,0,1-2.75-11,20.83,20.83,0,0,1,3.9-12.78,23.54,23.54,0,0,1,10.26-7.82,35.14,35.14,0,0,1,13.43-2.59,44.65,44.65,0,0,1,17.18,3.4c1.45.69,2.17,1.58,2.17,2.66l.87,17.72c0,.4-.27.64-.8.74s-.84-.05-.94-.44a36,36,0,0,0-6.5-14.77q-5.06-6.94-14.58-6.95-7.66,0-11.63,4.58a17,17,0,0,0-4,11.52A18,18,0,0,0,417.91,192.62Z"/><path class="cls-1" d="M484.46,192.62a27.77,27.77,0,0,0,6.65,7.24,131.11,131.11,0,0,0,11,7.23q7.37,4.59,11.56,7.83a29.91,29.91,0,0,1,7.15,8.12,21.81,21.81,0,0,1,3,11.53,23.68,23.68,0,0,1-13.87,22.08,36.15,36.15,0,0,1-16,3.32,40.42,40.42,0,0,1-20.8-5.32,2.61,2.61,0,0,1-1-1,6.06,6.06,0,0,1-.43-1.77L470,231.17c-.1-.39.12-.64.65-.74s.84,0,.94.44a49.9,49.9,0,0,0,9.1,18.69,20,20,0,0,0,16.46,7.75A18.29,18.29,0,0,0,509,253.47q4.76-3.84,4.76-12.55a21.76,21.76,0,0,0-2.89-11.45,30.46,30.46,0,0,0-7-8.12,105.36,105.36,0,0,0-11.19-7.61q-7.08-4.58-11-7.61a26.47,26.47,0,0,1-6.64-7.68,21.23,21.23,0,0,1-2.75-11,20.83,20.83,0,0,1,3.9-12.78,23.54,23.54,0,0,1,10.26-7.82,35.14,35.14,0,0,1,13.43-2.59,44.69,44.69,0,0,1,17.18,3.4c1.45.69,2.17,1.58,2.17,2.66l.87,17.72c0,.4-.27.64-.8.74s-.84-.05-.94-.44a36,36,0,0,0-6.5-14.77q-5.06-6.94-14.58-6.95-7.67,0-11.63,4.58a17,17,0,0,0-4,11.52A17.94,17.94,0,0,0,484.46,192.62Z"/><path class="cls-1" d="M558.37,253.54a43.66,43.66,0,0,1-16.18-17.42,51.43,51.43,0,0,1-5.7-24q0-15.2,7.51-26.06a47.21,47.21,0,0,1,19.28-16.32,56.46,56.46,0,0,1,24.05-5.47,43.84,43.84,0,0,1,40.07,23.93A49.22,49.22,0,0,1,633,211.08,46.08,46.08,0,0,1,626,235.75a50.27,50.27,0,0,1-18.56,17.72,50.82,50.82,0,0,1-25.2,6.5A44.72,44.72,0,0,1,558.37,253.54Zm46.07-1.69a33.19,33.19,0,0,0,12-14.26q4.4-9.37,4.4-22.37A59.22,59.22,0,0,0,616,190.7a39,39,0,0,0-13.79-16.84,36.28,36.28,0,0,0-20.8-6.05q-15.45,0-24.11,10.41T548.62,207a63.11,63.11,0,0,0,4.91,25.25,43.15,43.15,0,0,0,13.72,18,32.72,32.72,0,0,0,20.08,6.57A31,31,0,0,0,604.44,251.85Z"/><path class="cls-1" d="M753.63,257.31c0,.59-.14.89-.43.89-3.08,0-5.54-.05-7.36-.15l-10-.15-9.68.15q-2.31.15-6.49.15c-.2,0-.29-.3-.29-.89s.09-.89.29-.89a23.56,23.56,0,0,0,7.22-.81,4.82,4.82,0,0,0,3.1-2.88,16.49,16.49,0,0,0,.51-6.5l-2.75-65.72-32.35,76.65a1.14,1.14,0,0,1-1.15.59,1.73,1.73,0,0,1-1.3-.59L657.31,180.8l-1.16,60.85c-.1,5.22.8,9,2.67,11.3s5,3.47,9.46,3.47c.19,0,.29.3.29.89s-.1.89-.29.89q-4,0-6.21-.15l-7.8-.15-7.8.15c-1.34.1-3.27.15-5.77.15-.29,0-.44-.3-.44-.89s.15-.89.44-.89q5.91,0,8.81-3.54t3-11.23l1.3-67.2a13.65,13.65,0,0,0-12.13-6.79c-.29,0-.43-.3-.43-.89s.14-.88.43-.88l5.63.14c1.06.1,2.46.15,4.19.15,1.92,0,3.54-.05,4.84-.15s2.33-.14,3.1-.14a3.84,3.84,0,0,1,3,1.33,36.38,36.38,0,0,1,3.61,6.35l32.2,67.94,30.62-71.93q1.59-3.69,4.33-3.69c.48,0,1.2.05,2.17.14s2.21.15,3.75.15l7.22-.15c1.06-.09,2.7-.14,4.91-.14.2,0,.29.29.29.88s-.09.89-.29.89q-7.22,0-10.32,2.29t-3,8.2l3,68.08a22,22,0,0,0,1.16,6.65,4.87,4.87,0,0,0,3.24,2.81,29,29,0,0,0,7.73.73C753.49,256.42,753.63,256.72,753.63,257.31Z"/></svg>